<?xml version="1.0" encoding="UTF-8" standalone="no"?>
<!DOCTYPE svg PUBLIC "-//W3C//DTD SVG 1.1//EN" "http://www.w3.org/Graphics/SVG/1.1/DTD/svg11.dtd">
<svg style="fill-rule:evenodd;clip-rule:evenodd;stroke-linecap:round;stroke-linejoin:round;" xmlns:vectornator="http://vectornator.io" xmlns:xlink="http://www.w3.org/1999/xlink" xmlns="http://www.w3.org/2000/svg" xml:space="preserve" version="1.1" viewBox="0 0 6417.34 6417.34">
<defs/>
<g id="g8" vectornator:layerName="g8">
<path d="M-1.84221e-12+6666.67L6666.67+6666.67L6666.67+0.000135263L-1.84221e-12+0.000135263L-1.84221e-12+6666.67Z" opacity="1" fill="#aadcee"/>
<path d="M5100.87+5860.09L1688.8+5860.09C1474.17+5860.09+1286.92+5742.75+1187.73+5568.71C1288.92+5656.74+1421.14+5710.05+1565.8+5710.05L4977.85+5710.05C5296.16+5710.05+5554.21+5452+5554.21+5133.68L5554.21+4989.72L5554.21+4989.72L5554.21+2038.77L5554.21+1577.67L5554.21+1577.67C5554.21+1474.01+5526.86+1376.76+5478.96+1292.73C5600.42+1398.37+5677.21+1554.08+5677.21+1727.72L5677.21+1871.68L5677.21+2019.74L5677.21+2188.79L5677.21+5139.76L5677.21+5283.73C5677.21+5602.04+5419.18+5860.09+5100.87+5860.09M5111.9+1016.99C5072.33+1007.56+5031.16+1002.19+4988.9+1001.41L4988.9+717.317C5000.68+710.924+5014.14+707.292+5028.42+707.292C5074.33+707.292+5111.9+744.876+5111.9+790.792L5111.9+1016.99M4642.55+1001.3L4519.55+1001.3L4519.55+717.295C4531.32+710.924+4544.8+707.292+4559.05+707.292C4604.97+707.292+4642.55+744.876+4642.55+790.792L4642.55+1001.3M4173.19+1001.3L4050.19+1001.3L4050.19+717.295C4061.98+710.924+4075.43+707.292+4089.69+707.292C4135.63+707.292+4173.19+744.876+4173.19+790.792L4173.19+1001.3M3703.85+1001.3L3580.83+1001.3L3580.83+717.317C3592.61+710.924+3606.07+707.292+3620.35+707.292L3620.35+707.292C3666.26+707.292+3703.85+744.876+3703.85+790.792L3703.85+1001.3M3234.48+1001.3L3111.46+1001.3L3111.46+717.295C3123.25+710.924+3136.73+707.292+3150.98+707.292C3196.9+707.292+3234.48+744.876+3234.48+790.792L3234.48+1001.3M2765.12+1001.3L2642.12+1001.3L2642.12+717.295C2653.91+710.923+2667.36+707.292+2681.62+707.292C2727.56+707.292+2765.12+744.876+2765.12+790.792L2765.12+1001.3M2295.76+1001.3L2172.76+1001.3L2172.76+717.295C2184.54+710.923+2198+707.292+2212.28+707.292C2258.19+707.292+2295.76+744.876+2295.76+790.792L2295.76+1001.3M1826.41+1001.3L1703.39+1001.3L1703.39+717.317C1715.18+710.924+1728.63+707.292+1742.91+707.292C1788.83+707.292+1826.41+744.876+1826.41+790.792L1826.41+1001.3" opacity="1" fill="#8db7c6"/>
<path d="M4977.85+1145.27L1565.8+1145.27C1247.48+1145.27+989.453+1403.32+989.453+1721.63L989.453+5133.68C989.453+5452+1247.48+5710.05+1565.8+5710.05L4977.85+5710.05C5296.16+5710.05+5554.21+5452+5554.21+5133.68L5554.21+1721.63C5554.21+1403.32+5296.16+1145.27+4977.85+1145.27" opacity="1" fill="#d5d4d8"/>
<path d="M4977.85+1001.3L1565.8+1001.3C1247.48+1001.3+989.453+1259.35+989.453+1577.67L989.453+4989.72C989.453+5308.03+1247.48+5566.08+1565.8+5566.08L4977.85+5566.08C5296.16+5566.08+5554.21+5308.03+5554.21+4989.72L5554.21+1577.67C5554.21+1259.35+5296.16+1001.3+4977.85+1001.3" opacity="1" fill="#ffffff"/>
<path d="M5554.21+1577.67C5554.21+1259.35+5296.16+1001.3+4977.85+1001.3L1565.8+1001.3C1247.48+1001.3+989.453+1259.35+989.453+1577.67L989.453+2038.77L5554.21+2038.77L5554.21+1577.67" opacity="1" fill="#f74344"/>
<path d="M989.453+1869.7L989.453+2038.75L5554.21+2038.75L5554.21+1869.7L989.453+1869.7" opacity="1" fill="#dd3c44"/>
<path d="M3804.06+2751.53L3394.84+2751.53L3394.84+2342.31L3804.06+2342.31L3804.06+2751.53" opacity="1" fill="#d9dadd"/>
<path d="M4459.27+2751.53L4050.06+2751.53L4050.06+2342.31L4459.27+2342.31L4459.27+2751.53" opacity="1" fill="#d9dadd"/>
<path d="M5114.5+2751.53L4705.29+2751.53L4705.29+2342.31L5114.5+2342.31L5114.5+2751.53" opacity="1" fill="#d9dadd"/>
<path d="M1838.38+3345.18L1429.16+3345.18L1429.16+2935.95L1838.38+2935.95L1838.38+3345.18" opacity="1" fill="#d9dadd"/>
<path d="M2493.61+3345.18L2084.38+3345.18L2084.38+2935.95L2493.61+2935.95L2493.61+3345.18" opacity="1" fill="#d9dadd"/>
<path d="M3148.82+3345.18L2739.61+3345.18L2739.61+2935.95L3148.82+2935.95L3148.82+3345.18" opacity="1" fill="#d9dadd"/>
<path d="M3804.06+3345.18L3394.84+3345.18L3394.84+2935.95L3804.06+2935.95L3804.06+3345.18" opacity="1" fill="#d9dadd"/>
<path d="M4459.27+3345.18L4050.06+3345.18L4050.06+2935.95L4459.27+2935.95L4459.27+3345.18" opacity="1" fill="#d9dadd"/>
<path d="M5114.5+3345.18L4705.29+3345.18L4705.29+2935.95L5114.5+2935.95L5114.5+3345.18" opacity="1" fill="#d9dadd"/>
<path d="M1838.38+3938.82L1429.16+3938.82L1429.16+3529.6L1838.38+3529.6L1838.38+3938.82" opacity="1" fill="#d9dadd"/>
<path d="M2493.61+3938.82L2084.38+3938.82L2084.38+3529.6L2493.61+3529.6L2493.61+3938.82" opacity="1" fill="#d9dadd"/>
<path d="M3148.82+3938.82L2739.61+3938.82L2739.61+3529.6L3148.82+3529.6L3148.82+3938.82" opacity="1" fill="#d9dadd"/>
<path d="M3804.06+3938.82L3394.84+3938.82L3394.84+3529.6L3804.06+3529.6L3804.06+3938.82" opacity="1" fill="#d9dadd"/>
<path d="M4459.27+3938.82L4050.06+3938.82L4050.06+3529.6L4459.27+3529.6L4459.27+3938.82" opacity="1" fill="#d9dadd"/>
<path d="M5114.5+3938.82L4705.29+3938.82L4705.29+3529.6L5114.5+3529.6L5114.5+3938.82" opacity="1" fill="#d9dadd"/>
<path d="M1838.38+4532.47L1429.16+4532.47L1429.16+4123.26L1838.38+4123.26L1838.38+4532.47" opacity="1" fill="#d9dadd"/>
<path d="M2493.61+4532.47L2084.38+4532.47L2084.38+4123.26L2493.61+4123.26L2493.61+4532.47" opacity="1" fill="#d9dadd"/>
<path d="M3148.82+4532.47L2739.61+4532.47L2739.61+4123.26L3148.82+4123.26L3148.82+4532.47" opacity="1" fill="#d9dadd"/>
<path d="M3804.06+4532.47L3394.84+4532.47L3394.84+4123.26L3804.06+4123.26L3804.06+4532.47" opacity="1" fill="#d9dadd"/>
<path d="M4459.27+4532.47L4050.06+4532.47L4050.06+4123.26L4459.27+4123.26L4459.27+4532.47" opacity="1" fill="#d9dadd"/>
<path d="M5114.5+4532.47L4705.29+4532.47L4705.29+4123.26L5114.5+4123.26L5114.5+4532.47" opacity="1" fill="#d9dadd"/>
<path d="M1838.38+5126.13L1429.16+5126.13L1429.16+4716.92L1838.38+4716.92L1838.38+5126.13" opacity="1" fill="#d9dadd"/>
<path d="M2493.61+5126.13L2084.38+5126.13L2084.38+4716.92L2493.61+4716.92L2493.61+5126.13" opacity="1" fill="#d9dadd"/>
<path d="M3148.82+5126.13L2739.61+5126.13L2739.61+4716.92L3148.82+4716.92L3148.82+5126.13" opacity="1" fill="#d9dadd"/>
<path d="M3804.06+5126.13L3394.84+5126.13L3394.84+4716.92L3804.06+4716.92L3804.06+5126.13" opacity="1" fill="#d9dadd"/>
<path d="M4459.27+5126.13L4050.06+5126.13L4050.06+4716.92L4459.27+4716.92L4459.27+5126.13" opacity="1" fill="#d9dadd"/>
<path d="M1740.82+1324.45C1740.82+1391.22+1686.68+1445.36+1619.91+1445.36C1553.12+1445.36+1499.01+1391.22+1499.01+1324.45C1499.01+1257.68+1553.12+1203.55+1619.91+1203.55C1686.68+1203.55+1740.82+1257.68+1740.82+1324.45" opacity="1" fill="#b73238"/>
<path d="M2210.18+1324.45C2210.18+1391.22+2156.05+1445.36+2089.26+1445.36C2022.49+1445.36+1968.35+1391.22+1968.35+1324.45C1968.35+1257.68+2022.49+1203.55+2089.26+1203.55C2156.05+1203.55+2210.18+1257.68+2210.18+1324.45" opacity="1" fill="#b73238"/>
<path d="M2679.53+1324.45C2679.53+1391.22+2625.39+1445.36+2558.62+1445.36C2491.85+1445.36+2437.71+1391.22+2437.71+1324.45C2437.71+1257.68+2491.85+1203.55+2558.62+1203.55C2625.39+1203.55+2679.53+1257.68+2679.53+1324.45" opacity="1" fill="#b73238"/>
<path d="M3148.89+1324.45C3148.89+1391.22+3094.75+1445.36+3027.98+1445.36C2961.19+1445.36+2907.08+1391.22+2907.08+1324.45C2907.08+1257.68+2961.19+1203.55+3027.98+1203.55C3094.75+1203.55+3148.89+1257.68+3148.89+1324.45" opacity="1" fill="#b73238"/>
<path d="M3618.25+1324.45C3618.25+1391.22+3564.12+1445.36+3497.35+1445.36C3430.56+1445.36+3376.42+1391.22+3376.42+1324.45C3376.42+1257.68+3430.56+1203.55+3497.35+1203.55C3564.12+1203.55+3618.25+1257.68+3618.25+1324.45" opacity="1" fill="#b73238"/>
<path d="M4087.6+1324.45C4087.6+1391.22+4033.48+1445.36+3966.69+1445.36C3899.92+1445.36+3845.78+1391.22+3845.78+1324.45C3845.78+1257.68+3899.92+1203.55+3966.69+1203.55C4033.48+1203.55+4087.6+1257.68+4087.6+1324.45" opacity="1" fill="#b73238"/>
<path d="M4556.96+1324.45C4556.96+1391.22+4502.82+1445.36+4436.05+1445.36C4369.28+1445.36+4315.15+1391.22+4315.15+1324.45C4315.15+1257.68+4369.28+1203.55+4436.05+1203.55C4502.82+1203.55+4556.96+1257.68+4556.96+1324.45" opacity="1" fill="#b73238"/>
<path d="M5026.32+1324.45C5026.32+1391.22+4972.19+1445.36+4905.42+1445.36C4838.63+1445.36+4784.49+1391.22+4784.49+1324.45C4784.49+1257.68+4838.63+1203.55+4905.42+1203.55C4972.19+1203.55+5026.32+1257.68+5026.32+1324.45" opacity="1" fill="#b73238"/>
<path d="M1619.91+557.246C1573.98+557.246+1536.41+594.83+1536.41+640.746L1536.41+1269.13C1536.41+1315.05+1573.98+1352.63+1619.91+1352.63C1665.83+1352.63+1703.39+1315.05+1703.39+1269.13L1703.39+640.746C1703.39+594.83+1665.83+557.246+1619.91+557.246" opacity="1" fill="#ededed"/>
<path d="M1536.68+1275.75C1536.68+1275.73+1536.68+1275.73+1536.68+1275.73C1536.68+1275.73+1536.68+1275.73+1536.68+1275.75M1536.66+1275.48C1536.66+1275.46+1536.66+1275.46+1536.66+1275.46L1536.66+1275.48M1536.64+1275.22L1536.64+1275.19L1536.64+1275.22M1536.61+1274.95C1536.61+1274.95+1536.61+1274.95+1536.61+1274.93L1536.61+1274.95M1536.59+1274.7C1536.59+1274.68+1536.59+1274.66+1536.59+1274.66C1536.59+1274.68+1536.59+1274.68+1536.59+1274.7M1536.59+1274.44C1536.59+1274.41+1536.57+1274.39+1536.57+1274.37C1536.57+1274.39+1536.59+1274.41+1536.59+1274.44M1536.57+1274.17C1536.57+1274.15+1536.57+1274.13+1536.57+1274.1C1536.57+1274.13+1536.57+1274.15+1536.57+1274.17M1536.55+1273.9C1536.55+1273.9+1536.55+1273.88+1536.55+1273.86C1536.55+1273.88+1536.55+1273.9+1536.55+1273.9M1536.55+1273.66C1536.52+1273.63+1536.52+1273.61+1536.52+1273.57C1536.52+1273.61+1536.52+1273.63+1536.55+1273.66M1536.52+1273.39C1536.52+1273.37+1536.52+1273.35+1536.52+1273.32C1536.52+1273.35+1536.52+1273.37+1536.52+1273.39M1536.5+1273.12C1536.5+1273.1+1536.5+1273.08+1536.5+1273.06C1536.5+1273.08+1536.5+1273.1+1536.5+1273.12M1536.5+1272.86C1536.5+1272.83+1536.5+1272.81+1536.5+1272.77C1536.5+1272.81+1536.5+1272.83+1536.5+1272.86M1536.48+1272.61C1536.48+1272.57+1536.48+1272.52+1536.48+1272.5C1536.48+1272.52+1536.48+1272.57+1536.48+1272.61M1536.48+1272.34C1536.48+1272.3+1536.48+1272.28+1536.48+1272.23C1536.48+1272.28+1536.48+1272.3+1536.48+1272.34M1536.46+1272.08C1536.46+1272.03+1536.46+1272.01+1536.46+1271.96C1536.46+1272.01+1536.46+1272.03+1536.46+1272.08M1536.46+1271.81C1536.46+1271.76+1536.46+1271.72+1536.46+1271.7C1536.46+1271.72+1536.46+1271.76+1536.46+1271.81M1536.46+1271.54C1536.46+1271.5+1536.44+1271.45+1536.44+1271.41C1536.44+1271.45+1536.46+1271.5+1536.46+1271.54M1536.44+1271.27C1536.44+1271.23+1536.44+1271.21+1536.44+1271.18C1536.44+1271.21+1536.44+1271.23+1536.44+1271.27M1536.44+1271.01C1536.44+1270.96+1536.44+1270.94+1536.44+1270.89C1536.44+1270.94+1536.44+1270.96+1536.44+1271.01M1536.44+1270.74C1536.44+1270.69+1536.44+1270.63+1536.44+1270.58C1536.44+1270.63+1536.44+1270.67+1536.44+1270.74M1536.44+1270.47C1536.44+1270.43+1536.41+1270.38+1536.41+1270.34C1536.41+1270.38+1536.44+1270.43+1536.44+1270.47M1536.41+1270.2C1536.41+1270.16+1536.41+1270.11+1536.41+1270.07C1536.41+1270.11+1536.41+1270.16+1536.41+1270.2M1536.41+1269.94C1536.41+1269.87+1536.41+1269.83+1536.41+1269.76C1536.41+1269.83+1536.41+1269.87+1536.41+1269.94M1536.41+1269.67C1536.41+1269.49+1536.41+1269.31+1536.41+1269.13L1536.41+1269.13C1536.41+1269.31+1536.41+1269.49+1536.41+1269.67" opacity="1" fill="#aa2e34"/>
<path d="M1618.62+1352.59C1575.69+1351.94+1540.33+1318.46+1536.73+1276.26L1536.73+1276.26C1536.7+1276.09+1536.68+1275.91+1536.68+1275.75C1536.68+1275.73+1536.68+1275.73+1536.68+1275.73C1536.66+1275.64+1536.66+1275.55+1536.66+1275.48L1536.66+1275.46C1536.66+1275.37+1536.64+1275.31+1536.64+1275.22L1536.64+1275.19C1536.64+1275.1+1536.61+1275.04+1536.61+1274.95L1536.61+1274.93C1536.61+1274.84+1536.61+1274.77+1536.59+1274.7C1536.59+1274.68+1536.59+1274.68+1536.59+1274.66C1536.59+1274.57+1536.59+1274.5+1536.59+1274.44C1536.59+1274.41+1536.57+1274.39+1536.57+1274.37C1536.57+1274.3+1536.57+1274.24+1536.57+1274.17C1536.57+1274.15+1536.57+1274.12+1536.57+1274.1C1536.57+1274.04+1536.55+1273.97+1536.55+1273.9C1536.55+1273.9+1536.55+1273.88+1536.55+1273.86C1536.55+1273.79+1536.55+1273.72+1536.55+1273.66C1536.53+1273.63+1536.53+1273.61+1536.53+1273.57C1536.53+1273.5+1536.53+1273.46+1536.53+1273.39C1536.53+1273.37+1536.53+1273.34+1536.53+1273.32C1536.53+1273.26+1536.5+1273.19+1536.5+1273.12C1536.5+1273.1+1536.5+1273.08+1536.5+1273.06C1536.5+1272.99+1536.5+1272.92+1536.5+1272.85C1536.5+1272.83+1536.5+1272.81+1536.5+1272.77C1536.48+1272.72+1536.48+1272.65+1536.48+1272.61C1536.48+1272.57+1536.48+1272.52+1536.48+1272.5C1536.48+1272.43+1536.48+1272.39+1536.48+1272.34C1536.48+1272.3+1536.48+1272.28+1536.48+1272.23C1536.48+1272.19+1536.46+1272.12+1536.46+1272.07C1536.46+1272.03+1536.46+1272.01+1536.46+1271.96C1536.46+1271.92+1536.46+1271.85+1536.46+1271.81C1536.46+1271.76+1536.46+1271.72+1536.46+1271.7C1536.46+1271.63+1536.46+1271.58+1536.46+1271.54C1536.46+1271.5+1536.44+1271.45+1536.44+1271.41C1536.44+1271.36+1536.44+1271.32+1536.44+1271.27C1536.44+1271.23+1536.44+1271.21+1536.44+1271.18C1536.44+1271.12+1536.44+1271.05+1536.44+1271.01C1536.44+1270.96+1536.44+1270.94+1536.44+1270.89C1536.44+1270.85+1536.44+1270.78+1536.44+1270.74C1536.44+1270.67+1536.44+1270.63+1536.44+1270.58C1536.44+1270.54+1536.44+1270.52+1536.44+1270.47C1536.44+1270.43+1536.41+1270.38+1536.41+1270.34C1536.41+1270.29+1536.41+1270.25+1536.41+1270.2C1536.41+1270.16+1536.41+1270.11+1536.41+1270.07C1536.41+1270.03+1536.41+1269.98+1536.41+1269.94C1536.41+1269.87+1536.41+1269.82+1536.41+1269.76C1536.41+1269.71+1536.41+1269.69+1536.41+1269.67C1536.41+1269.49+1536.41+1269.31+1536.41+1269.13L1536.41+640.746L1536.41+640.746C1536.41+640.568+1536.41+640.389+1536.41+640.211C1536.41+640.189+1536.41+640.167+1536.41+640.122C1536.41+640.055+1536.41+640.011+1536.41+639.944C1536.41+639.899+1536.41+639.855+1536.41+639.81C1536.41+639.766+1536.41+639.721+1536.41+639.676C1536.41+639.632+1536.41+639.587+1536.41+639.565C1536.41+639.498+1536.44+639.454+1536.44+639.409C1536.44+639.365+1536.44+639.342+1536.44+639.298C1536.44+639.253+1536.44+639.209+1536.44+639.142C1536.44+639.097+1536.44+639.03+1536.44+638.986C1536.44+638.941+1536.44+638.919+1536.44+638.874C1536.44+638.83+1536.44+638.763+1536.44+638.719C1536.44+638.674+1536.44+638.652+1536.44+638.607C1536.44+638.563+1536.44+638.518+1536.44+638.473C1536.44+638.429+1536.46+638.384+1536.46+638.34C1536.46+638.295+1536.46+638.251+1536.46+638.184C1536.46+638.162+1536.46+638.117+1536.46+638.072C1536.46+638.028+1536.46+637.961+1536.46+637.916C1536.46+637.872+1536.46+637.85+1536.46+637.827C1536.46+637.761+1536.48+637.716+1536.48+637.649C1536.48+637.605+1536.48+637.582+1536.48+637.56C1536.48+637.493+1536.48+637.449+1536.48+637.382C1536.48+637.36+1536.48+637.315+1536.48+637.293C1536.48+637.226+1536.48+637.159+1536.5+637.114C1536.5+637.07+1536.5+637.048+1536.5+637.025C1536.5+636.959+1536.5+636.892+1536.5+636.825C1536.5+636.803+1536.5+636.78+1536.5+636.758C1536.5+636.691+1536.53+636.624+1536.53+636.557C1536.53+636.535+1536.53+636.513+1536.53+636.491C1536.53+636.424+1536.53+636.379+1536.53+636.312C1536.53+636.29+1536.53+636.246+1536.55+636.223C1536.55+636.156+1536.55+636.09+1536.55+636.023C1536.55+636.001+1536.55+636.001+1536.55+635.978C1536.55+635.911+1536.57+635.845+1536.57+635.778C1536.57+635.755+1536.57+635.733+1536.57+635.711C1536.57+635.644+1536.57+635.577+1536.57+635.51C1536.57+635.488+1536.59+635.466+1536.59+635.444C1536.59+635.377+1536.59+635.288+1536.59+635.221C1536.59+635.221+1536.59+635.198+1536.59+635.176C1536.61+635.109+1536.61+635.043+1536.61+634.953L1536.61+634.931C1536.61+634.842+1536.64+634.775+1536.64+634.708C1536.64+634.686+1536.64+634.664+1536.64+634.664C1536.64+634.575+1536.66+634.508+1536.66+634.419L1536.66+634.396C1536.66+634.33+1536.66+634.241+1536.68+634.174C1536.68+634.151+1536.68+634.151+1536.68+634.129C1536.68+634.04+1536.68+633.973+1536.7+633.884L1536.7+633.884C1536.7+633.795+1536.7+633.706+1536.73+633.617L1536.73+633.617C1540.33+591.421+1575.69+557.937+1618.62+557.29L1618.62+1352.59" opacity="1" fill="#dcdcdc"/>
<path d="M2089.26+557.246C2043.34+557.246+2005.78+594.83+2005.78+640.746L2005.78+1269.13C2005.78+1315.05+2043.34+1352.63+2089.26+1352.63C2135.19+1352.63+2172.76+1315.05+2172.76+1269.13L2172.76+640.746C2172.76+594.83+2135.19+557.246+2089.26+557.246" opacity="1" fill="#ededed"/>
<path d="M2006.18+1277.31L2006.18+1277.29L2006.18+1277.31M2006.16+1277.04C2006.16+1277.04+2006.16+1277.04+2006.13+1277.02C2006.16+1277.04+2006.16+1277.04+2006.16+1277.04M2006.11+1276.8C2006.11+1276.78+2006.11+1276.78+2006.11+1276.75C2006.11+1276.78+2006.11+1276.78+2006.11+1276.8M2006.09+1276.53C2006.09+1276.51+2006.09+1276.51+2006.09+1276.51C2006.09+1276.51+2006.09+1276.51+2006.09+1276.53M2006.07+1276.26L2006.07+1276.24L2006.07+1276.26M2006.05+1276C2006.05+1276+2006.05+1276+2006.05+1275.97L2006.05+1276M2006.02+1275.75C2006.02+1275.73+2006.02+1275.71+2006.02+1275.68C2006.02+1275.71+2006.02+1275.73+2006.02+1275.75M2006.02+1275.48C2006.02+1275.46+2006+1275.44+2006+1275.44C2006+1275.44+2006.02+1275.46+2006.02+1275.48M2006+1275.24C2006+1275.19+2006+1275.17+2005.98+1275.15C2006+1275.17+2006+1275.22+2006+1275.24M2005.98+1274.97C2005.98+1274.95+2005.98+1274.93+2005.98+1274.88C2005.98+1274.9+2005.98+1274.95+2005.98+1274.97M2005.96+1274.7C2005.96+1274.68+2005.96+1274.66+2005.96+1274.62C2005.96+1274.66+2005.96+1274.68+2005.96+1274.7M2005.93+1274.44C2005.93+1274.41+2005.93+1274.39+2005.93+1274.37C2005.93+1274.39+2005.93+1274.41+2005.93+1274.44M2005.93+1274.17C2005.93+1274.15+2005.91+1274.12+2005.91+1274.1C2005.91+1274.12+2005.93+1274.15+2005.93+1274.17M2005.91+1273.9C2005.91+1273.9+2005.91+1273.88+2005.91+1273.86C2005.91+1273.88+2005.91+1273.9+2005.91+1273.9M2005.89+1273.66C2005.89+1273.63+2005.89+1273.61+2005.89+1273.57C2005.89+1273.61+2005.89+1273.63+2005.89+1273.66M2005.89+1273.39C2005.89+1273.37+2005.87+1273.35+2005.87+1273.32C2005.89+1273.35+2005.89+1273.37+2005.89+1273.39M2005.87+1273.12C2005.87+1273.1+2005.87+1273.08+2005.87+1273.06C2005.87+1273.08+2005.87+1273.1+2005.87+1273.12M2005.84+1272.86C2005.84+1272.83+2005.84+1272.81+2005.84+1272.77C2005.84+1272.81+2005.84+1272.83+2005.84+1272.86M2005.84+1272.61C2005.84+1272.57+2005.84+1272.52+2005.84+1272.5C2005.84+1272.52+2005.84+1272.57+2005.84+1272.61M2005.82+1272.34C2005.82+1272.3+2005.82+1272.28+2005.82+1272.23C2005.82+1272.28+2005.82+1272.3+2005.82+1272.34M2005.82+1272.08C2005.82+1272.03+2005.82+1272.01+2005.82+1271.96C2005.82+1272.01+2005.82+1272.03+2005.82+1272.08M2005.82+1271.81C2005.82+1271.76+2005.82+1271.72+2005.82+1271.7C2005.82+1271.72+2005.82+1271.76+2005.82+1271.81M2005.8+1271.54C2005.8+1271.5+2005.8+1271.45+2005.8+1271.41C2005.8+1271.45+2005.8+1271.5+2005.8+1271.54M2005.8+1271.27C2005.8+1271.23+2005.8+1271.21+2005.8+1271.18C2005.8+1271.21+2005.8+1271.23+2005.8+1271.27M2005.8+1271.01C2005.8+1270.96+2005.8+1270.94+2005.8+1270.89C2005.8+1270.94+2005.8+1270.96+2005.8+1271.01M2005.78+1270.74C2005.78+1270.69+2005.78+1270.63+2005.78+1270.58C2005.78+1270.63+2005.78+1270.67+2005.78+1270.74M2005.78+1270.47C2005.78+1270.43+2005.78+1270.38+2005.78+1270.34C2005.78+1270.38+2005.78+1270.43+2005.78+1270.47M2005.78+1270.2C2005.78+1270.16+2005.78+1270.11+2005.78+1270.07C2005.78+1270.11+2005.78+1270.16+2005.78+1270.2M2005.78+1269.94C2005.78+1269.87+2005.78+1269.83+2005.78+1269.76C2005.78+1269.83+2005.78+1269.87+2005.78+1269.94M2005.78+1269.67C2005.78+1269.49+2005.78+1269.31+2005.78+1269.13L2005.78+1269.13C2005.78+1269.31+2005.78+1269.49+2005.78+1269.67" opacity="1" fill="#aa2e34"/>
<path d="M2087.99+1352.59C2045.39+1351.94+2010.28+1319.02+2006.18+1277.31L2006.18+1277.29C2006.16+1277.22+2006.16+1277.13+2006.16+1277.04C2006.16+1277.04+2006.16+1277.04+2006.13+1277.02C2006.13+1276.95+2006.13+1276.86+2006.11+1276.8C2006.11+1276.78+2006.11+1276.78+2006.11+1276.75C2006.11+1276.69+2006.11+1276.6+2006.09+1276.53C2006.09+1276.51+2006.09+1276.51+2006.09+1276.51C2006.09+1276.42+2006.09+1276.35+2006.07+1276.26L2006.07+1276.24C2006.07+1276.15+2006.07+1276.09+2006.04+1276L2006.04+1275.97C2006.04+1275.91+2006.04+1275.82+2006.02+1275.75C2006.02+1275.73+2006.02+1275.71+2006.02+1275.68C2006.02+1275.62+2006.02+1275.55+2006.02+1275.48C2006.02+1275.46+2006+1275.44+2006+1275.44C2006+1275.37+2006+1275.31+2006+1275.24C2006+1275.22+2006+1275.17+2005.98+1275.15C2005.98+1275.1+2005.98+1275.04+2005.98+1274.97C2005.98+1274.95+2005.98+1274.9+2005.98+1274.88C2005.96+1274.84+2005.96+1274.77+2005.96+1274.7C2005.96+1274.68+2005.96+1274.66+2005.96+1274.61C2005.96+1274.57+2005.93+1274.5+2005.93+1274.44C2005.93+1274.41+2005.93+1274.39+2005.93+1274.37C2005.93+1274.3+2005.93+1274.24+2005.93+1274.17C2005.93+1274.15+2005.91+1274.12+2005.91+1274.1C2005.91+1274.04+2005.91+1273.97+2005.91+1273.9C2005.91+1273.9+2005.91+1273.88+2005.91+1273.86C2005.91+1273.79+2005.89+1273.72+2005.89+1273.66C2005.89+1273.63+2005.89+1273.61+2005.89+1273.57C2005.89+1273.5+2005.89+1273.46+2005.89+1273.39C2005.89+1273.37+2005.89+1273.34+2005.87+1273.32C2005.87+1273.26+2005.87+1273.19+2005.87+1273.12C2005.87+1273.1+2005.87+1273.08+2005.87+1273.06C2005.87+1272.99+2005.87+1272.92+2005.84+1272.85C2005.84+1272.83+2005.84+1272.81+2005.84+1272.77C2005.84+1272.72+2005.84+1272.65+2005.84+1272.61C2005.84+1272.57+2005.84+1272.52+2005.84+1272.5C2005.84+1272.43+2005.84+1272.39+2005.82+1272.34C2005.82+1272.3+2005.82+1272.28+2005.82+1272.23C2005.82+1272.19+2005.82+1272.12+2005.82+1272.07C2005.82+1272.03+2005.82+1272.01+2005.82+1271.96C2005.82+1271.92+2005.82+1271.85+2005.82+1271.81C2005.82+1271.76+2005.82+1271.72+2005.82+1271.7C2005.8+1271.63+2005.8+1271.58+2005.8+1271.54C2005.8+1271.5+2005.8+1271.45+2005.8+1271.41C2005.8+1271.36+2005.8+1271.32+2005.8+1271.27C2005.8+1271.23+2005.8+1271.21+2005.8+1271.18C2005.8+1271.12+2005.8+1271.05+2005.8+1271.01C2005.8+1270.96+2005.8+1270.94+2005.8+1270.89C2005.8+1270.85+2005.78+1270.78+2005.78+1270.74C2005.78+1270.67+2005.78+1270.63+2005.78+1270.58C2005.78+1270.54+2005.78+1270.52+2005.78+1270.47C2005.78+1270.43+2005.78+1270.38+2005.78+1270.34C2005.78+1270.29+2005.78+1270.25+2005.78+1270.2C2005.78+1270.16+2005.78+1270.11+2005.78+1270.07C2005.78+1270.03+2005.78+1269.98+2005.78+1269.94C2005.78+1269.87+2005.78+1269.82+2005.78+1269.76C2005.78+1269.71+2005.78+1269.69+2005.78+1269.67C2005.78+1269.49+2005.78+1269.31+2005.78+1269.13L2005.78+640.746L2005.78+640.746C2005.78+640.568+2005.78+640.389+2005.78+640.211C2005.78+640.189+2005.78+640.167+2005.78+640.122C2005.78+640.055+2005.78+640.011+2005.78+639.944C2005.78+639.899+2005.78+639.855+2005.78+639.81C2005.78+639.766+2005.78+639.721+2005.78+639.676C2005.78+639.632+2005.78+639.587+2005.78+639.565C2005.78+639.498+2005.78+639.454+2005.78+639.409C2005.78+639.365+2005.78+639.342+2005.78+639.298C2005.78+639.253+2005.78+639.209+2005.78+639.142C2005.78+639.097+2005.8+639.03+2005.8+638.986C2005.8+638.941+2005.8+638.919+2005.8+638.874C2005.8+638.83+2005.8+638.763+2005.8+638.719C2005.8+638.674+2005.8+638.652+2005.8+638.607C2005.8+638.563+2005.8+638.518+2005.8+638.473C2005.8+638.429+2005.8+638.384+2005.8+638.34C2005.8+638.295+2005.8+638.251+2005.82+638.184C2005.82+638.162+2005.82+638.117+2005.82+638.072C2005.82+638.028+2005.82+637.961+2005.82+637.916C2005.82+637.872+2005.82+637.85+2005.82+637.827C2005.82+637.761+2005.82+637.716+2005.82+637.649C2005.82+637.605+2005.82+637.582+2005.82+637.56C2005.84+637.493+2005.84+637.449+2005.84+637.382C2005.84+637.36+2005.84+637.315+2005.84+637.293C2005.84+637.226+2005.84+637.159+2005.84+637.114C2005.84+637.07+2005.84+637.048+2005.84+637.025C2005.87+636.959+2005.87+636.892+2005.87+636.825C2005.87+636.803+2005.87+636.78+2005.87+636.758C2005.87+636.691+2005.87+636.624+2005.87+636.557C2005.89+636.535+2005.89+636.513+2005.89+636.491C2005.89+636.424+2005.89+636.379+2005.89+636.312C2005.89+636.29+2005.89+636.246+2005.89+636.223C2005.89+636.156+2005.91+636.09+2005.91+636.023C2005.91+636.001+2005.91+636.001+2005.91+635.978C2005.91+635.911+2005.91+635.845+2005.91+635.778C2005.91+635.755+2005.91+635.733+2005.93+635.711C2005.93+635.644+2005.93+635.577+2005.93+635.51C2005.93+635.488+2005.93+635.466+2005.93+635.444C2005.93+635.377+2005.96+635.332+2005.96+635.265C2005.96+635.221+2005.96+635.198+2005.96+635.176C2005.96+635.109+2005.96+635.043+2005.98+634.998C2005.98+634.976+2005.98+634.931+2005.98+634.909C2005.98+634.842+2005.98+634.797+2005.98+634.731C2006+634.708+2006+634.664+2006+634.642C2006+634.597+2006+634.53+2006+634.463C2006+634.441+2006.02+634.419+2006.02+634.396C2006.02+634.33+2006.02+634.263+2006.02+634.196C2006.02+634.174+2006.02+634.151+2006.04+634.129C2006.04+634.062+2006.04+633.995+2006.04+633.906L2006.04+633.884C2006.07+633.795+2006.07+633.728+2006.07+633.661C2006.07+633.639+2006.07+633.617+2006.07+633.617C2006.09+633.528+2006.09+633.461+2006.09+633.394C2006.09+633.372+2006.09+633.372+2006.09+633.349C2006.11+633.283+2006.11+633.193+2006.11+633.127C2006.11+633.104+2006.11+633.104+2006.11+633.082C2006.13+633.015+2006.13+632.926+2006.13+632.859C2006.16+632.837+2006.16+632.837+2006.16+632.837C2006.16+632.748+2006.16+632.659+2006.18+632.592L2006.18+632.57C2006.18+632.481+2006.18+632.414+2006.2+632.325L2006.2+632.325C2010.41+590.731+2045.48+557.937+2087.99+557.29L2087.99+1352.59" opacity="1" fill="#dcdcdc"/>
<path d="M2558.62+557.246C2512.7+557.246+2475.12+594.83+2475.12+640.746L2475.12+1269.13C2475.12+1315.05+2512.7+1352.63+2558.62+1352.63C2604.54+1352.63+2642.12+1315.05+2642.12+1269.13L2642.12+640.746C2642.12+594.83+2604.54+557.246+2558.62+557.246" opacity="1" fill="#ededed"/>
<path d="M2475.52+1277.31L2475.52+1277.29L2475.52+1277.31M2475.5+1277.04C2475.5+1277.04+2475.5+1277.04+2475.5+1277.02C2475.5+1277.04+2475.5+1277.04+2475.5+1277.04M2475.48+1276.8C2475.48+1276.78+2475.48+1276.78+2475.48+1276.75C2475.48+1276.78+2475.48+1276.78+2475.48+1276.8M2475.45+1276.53C2475.45+1276.51+2475.45+1276.51+2475.45+1276.51C2475.45+1276.51+2475.45+1276.51+2475.45+1276.53M2475.43+1276.26L2475.43+1276.24L2475.43+1276.26M2475.41+1276C2475.41+1276+2475.41+1276+2475.41+1275.97L2475.41+1276M2475.39+1275.75C2475.39+1275.73+2475.39+1275.71+2475.39+1275.68C2475.39+1275.71+2475.39+1275.73+2475.39+1275.75M2475.36+1275.48C2475.36+1275.46+2475.36+1275.46+2475.36+1275.44C2475.36+1275.44+2475.36+1275.46+2475.36+1275.48M2475.34+1275.22C2475.34+1275.22+2475.34+1275.19+2475.34+1275.17C2475.34+1275.19+2475.34+1275.22+2475.34+1275.22M2475.34+1274.97C2475.34+1274.95+2475.32+1274.93+2475.32+1274.9C2475.32+1274.93+2475.34+1274.95+2475.34+1274.97M2475.32+1274.7C2475.32+1274.68+2475.32+1274.66+2475.32+1274.64C2475.32+1274.66+2475.32+1274.68+2475.32+1274.7M2475.3+1274.44C2475.3+1274.41+2475.3+1274.39+2475.3+1274.37C2475.3+1274.39+2475.3+1274.41+2475.3+1274.44M2475.28+1274.19C2475.28+1274.15+2475.28+1274.12+2475.28+1274.1C2475.28+1274.12+2475.28+1274.15+2475.28+1274.19M2475.28+1273.92C2475.25+1273.88+2475.25+1273.86+2475.25+1273.84C2475.25+1273.86+2475.25+1273.88+2475.28+1273.92M2475.25+1273.66C2475.25+1273.61+2475.25+1273.59+2475.25+1273.55C2475.25+1273.59+2475.25+1273.61+2475.25+1273.66M2475.23+1273.39C2475.23+1273.37+2475.23+1273.32+2475.23+1273.3C2475.23+1273.32+2475.23+1273.37+2475.23+1273.39M2475.23+1273.12C2475.23+1273.1+2475.23+1273.06+2475.23+1273.03C2475.23+1273.08+2475.23+1273.1+2475.23+1273.12M2475.21+1272.86C2475.21+1272.83+2475.21+1272.81+2475.21+1272.77C2475.21+1272.81+2475.21+1272.83+2475.21+1272.86M2475.21+1272.61C2475.21+1272.57+2475.21+1272.52+2475.19+1272.5C2475.21+1272.52+2475.21+1272.57+2475.21+1272.61M2475.19+1272.34C2475.19+1272.3+2475.19+1272.28+2475.19+1272.23C2475.19+1272.28+2475.19+1272.3+2475.19+1272.34M2475.19+1272.08C2475.19+1272.03+2475.19+1272.01+2475.19+1271.96C2475.19+1272.01+2475.19+1272.03+2475.19+1272.08M2475.16+1271.81C2475.16+1271.76+2475.16+1271.72+2475.16+1271.7C2475.16+1271.72+2475.16+1271.76+2475.16+1271.81M2475.16+1271.54C2475.16+1271.5+2475.16+1271.45+2475.16+1271.41C2475.16+1271.45+2475.16+1271.5+2475.16+1271.54M2475.16+1271.27C2475.16+1271.23+2475.16+1271.21+2475.16+1271.18C2475.16+1271.21+2475.16+1271.23+2475.16+1271.27M2475.14+1271.01C2475.14+1270.96+2475.14+1270.94+2475.14+1270.89C2475.14+1270.94+2475.14+1270.96+2475.14+1271.01M2475.14+1270.74C2475.14+1270.69+2475.14+1270.63+2475.14+1270.58C2475.14+1270.63+2475.14+1270.67+2475.14+1270.74M2475.14+1270.47C2475.14+1270.43+2475.14+1270.38+2475.14+1270.34C2475.14+1270.38+2475.14+1270.43+2475.14+1270.47M2475.14+1270.2C2475.14+1270.16+2475.14+1270.11+2475.14+1270.07C2475.14+1270.11+2475.14+1270.16+2475.14+1270.2M2475.14+1269.94C2475.14+1269.87+2475.14+1269.83+2475.14+1269.76C2475.14+1269.83+2475.14+1269.87+2475.14+1269.94M2475.14+1269.67C2475.12+1269.49+2475.12+1269.31+2475.12+1269.13L2475.12+1269.13C2475.12+1269.31+2475.12+1269.49+2475.14+1269.67" opacity="1" fill="#aa2e34"/>
<path d="M2557.35+1352.59C2514.75+1351.94+2479.62+1319.02+2475.52+1277.31L2475.52+1277.29C2475.52+1277.22+2475.52+1277.13+2475.5+1277.04C2475.5+1277.04+2475.5+1277.04+2475.5+1277.02C2475.5+1276.95+2475.5+1276.86+2475.48+1276.8C2475.48+1276.78+2475.48+1276.78+2475.48+1276.75C2475.48+1276.69+2475.45+1276.6+2475.45+1276.53C2475.45+1276.51+2475.45+1276.51+2475.45+1276.51C2475.45+1276.42+2475.43+1276.35+2475.43+1276.26L2475.43+1276.24C2475.43+1276.15+2475.41+1276.09+2475.41+1276L2475.41+1275.97C2475.41+1275.91+2475.39+1275.82+2475.39+1275.75C2475.39+1275.73+2475.39+1275.71+2475.39+1275.68C2475.39+1275.62+2475.39+1275.55+2475.36+1275.48C2475.36+1275.46+2475.36+1275.44+2475.36+1275.44C2475.36+1275.37+2475.36+1275.31+2475.34+1275.22C2475.34+1275.22+2475.34+1275.19+2475.34+1275.17C2475.34+1275.1+2475.34+1275.04+2475.34+1274.97C2475.34+1274.95+2475.32+1274.93+2475.32+1274.9C2475.32+1274.84+2475.32+1274.77+2475.32+1274.7C2475.32+1274.68+2475.32+1274.66+2475.32+1274.64C2475.3+1274.57+2475.3+1274.5+2475.3+1274.44C2475.3+1274.41+2475.3+1274.39+2475.3+1274.37C2475.3+1274.3+2475.28+1274.24+2475.28+1274.19C2475.28+1274.15+2475.28+1274.12+2475.28+1274.1C2475.28+1274.04+2475.28+1273.97+2475.28+1273.92C2475.25+1273.88+2475.25+1273.86+2475.25+1273.83C2475.25+1273.77+2475.25+1273.72+2475.25+1273.66C2475.25+1273.61+2475.25+1273.59+2475.25+1273.55C2475.25+1273.5+2475.23+1273.46+2475.23+1273.39C2475.23+1273.37+2475.23+1273.32+2475.23+1273.3C2475.23+1273.23+2475.23+1273.19+2475.23+1273.12C2475.23+1273.1+2475.23+1273.08+2475.23+1273.03C2475.21+1272.99+2475.21+1272.92+2475.21+1272.85C2475.21+1272.83+2475.21+1272.81+2475.21+1272.77C2475.21+1272.72+2475.21+1272.65+2475.21+1272.61C2475.21+1272.57+2475.21+1272.52+2475.19+1272.5C2475.19+1272.43+2475.19+1272.39+2475.19+1272.34C2475.19+1272.3+2475.19+1272.28+2475.19+1272.23C2475.19+1272.19+2475.19+1272.12+2475.19+1272.07C2475.19+1272.03+2475.19+1272.01+2475.19+1271.96C2475.19+1271.92+2475.16+1271.85+2475.16+1271.81C2475.16+1271.76+2475.16+1271.72+2475.16+1271.7C2475.16+1271.63+2475.16+1271.58+2475.16+1271.54C2475.16+1271.5+2475.16+1271.45+2475.16+1271.41C2475.16+1271.36+2475.16+1271.32+2475.16+1271.27C2475.16+1271.23+2475.16+1271.21+2475.16+1271.18C2475.16+1271.12+2475.14+1271.05+2475.14+1271.01C2475.14+1270.96+2475.14+1270.94+2475.14+1270.89C2475.14+1270.85+2475.14+1270.78+2475.14+1270.74C2475.14+1270.67+2475.14+1270.63+2475.14+1270.58C2475.14+1270.54+2475.14+1270.52+2475.14+1270.47C2475.14+1270.43+2475.14+1270.38+2475.14+1270.34C2475.14+1270.29+2475.14+1270.25+2475.14+1270.2C2475.14+1270.16+2475.14+1270.11+2475.14+1270.07C2475.14+1270.03+2475.14+1269.98+2475.14+1269.94C2475.14+1269.87+2475.14+1269.82+2475.14+1269.76C2475.14+1269.71+2475.14+1269.69+2475.14+1269.67C2475.12+1269.49+2475.12+1269.31+2475.12+1269.13L2475.12+640.746L2475.12+640.746C2475.12+640.568+2475.12+640.389+2475.14+640.211C2475.14+640.189+2475.14+640.167+2475.14+640.122C2475.14+640.055+2475.14+640.011+2475.14+639.944C2475.14+639.899+2475.14+639.855+2475.14+639.81C2475.14+639.766+2475.14+639.721+2475.14+639.676C2475.14+639.632+2475.14+639.587+2475.14+639.565C2475.14+639.498+2475.14+639.454+2475.14+639.409C2475.14+639.365+2475.14+639.342+2475.14+639.298C2475.14+639.253+2475.14+639.209+2475.14+639.142C2475.14+639.097+2475.14+639.03+2475.14+638.986C2475.14+638.941+2475.14+638.919+2475.14+638.874C2475.14+638.83+2475.14+638.763+2475.16+638.719C2475.16+638.674+2475.16+638.652+2475.16+638.607C2475.16+638.563+2475.16+638.518+2475.16+638.473C2475.16+638.429+2475.16+638.384+2475.16+638.34C2475.16+638.295+2475.16+638.251+2475.16+638.184C2475.16+638.162+2475.16+638.117+2475.16+638.072C2475.16+638.028+2475.19+637.961+2475.19+637.916C2475.19+637.872+2475.19+637.85+2475.19+637.827C2475.19+637.761+2475.19+637.716+2475.19+637.649C2475.19+637.605+2475.19+637.582+2475.19+637.56C2475.19+637.493+2475.19+637.449+2475.19+637.382C2475.21+637.36+2475.21+637.315+2475.21+637.293C2475.21+637.226+2475.21+637.159+2475.21+637.114C2475.21+637.07+2475.21+637.048+2475.21+637.025C2475.21+636.959+2475.21+636.914+2475.23+636.847C2475.23+636.825+2475.23+636.78+2475.23+636.758C2475.23+636.691+2475.23+636.647+2475.23+636.58C2475.23+636.557+2475.23+636.513+2475.23+636.491C2475.23+636.446+2475.25+636.379+2475.25+636.335C2475.25+636.29+2475.25+636.268+2475.25+636.223C2475.25+636.156+2475.25+636.112+2475.25+636.045C2475.25+636.023+2475.25+636.001+2475.28+635.956C2475.28+635.911+2475.28+635.845+2475.28+635.8C2475.28+635.755+2475.28+635.733+2475.28+635.711C2475.28+635.644+2475.3+635.577+2475.3+635.51C2475.3+635.488+2475.3+635.466+2475.3+635.444C2475.3+635.377+2475.3+635.31+2475.32+635.243C2475.32+635.221+2475.32+635.198+2475.32+635.176C2475.32+635.109+2475.32+635.043+2475.32+634.976C2475.32+634.953+2475.34+634.931+2475.34+634.909C2475.34+634.842+2475.34+634.775+2475.34+634.708C2475.34+634.686+2475.34+634.664+2475.34+634.664C2475.36+634.575+2475.36+634.508+2475.36+634.441L2475.36+634.396C2475.39+634.33+2475.39+634.263+2475.39+634.196C2475.39+634.174+2475.39+634.151+2475.39+634.129C2475.39+634.062+2475.41+633.995+2475.41+633.906L2475.41+633.884C2475.41+633.795+2475.43+633.728+2475.43+633.661C2475.43+633.639+2475.43+633.617+2475.43+633.617C2475.43+633.528+2475.45+633.461+2475.45+633.394C2475.45+633.372+2475.45+633.372+2475.45+633.349C2475.45+633.283+2475.48+633.193+2475.48+633.127C2475.48+633.104+2475.48+633.104+2475.48+633.082C2475.5+633.015+2475.5+632.926+2475.5+632.859C2475.5+632.837+2475.5+632.837+2475.5+632.837C2475.52+632.748+2475.52+632.659+2475.52+632.592L2475.52+632.57C2475.54+632.481+2475.54+632.414+2475.57+632.325L2475.57+632.325C2479.78+590.731+2514.84+557.937+2557.35+557.29L2557.35+1352.59" opacity="1" fill="#dcdcdc"/>
<path d="M3027.98+557.246C2982.07+557.246+2944.48+594.83+2944.48+640.746L2944.48+1269.13C2944.48+1315.05+2982.07+1352.63+3027.98+1352.63C3073.9+1352.63+3111.46+1315.05+3111.46+1269.13L3111.46+640.746C3111.46+594.83+3073.9+557.246+3027.98+557.246" opacity="1" fill="#ededed"/>
<path d="M2944.75+1275.75C2944.75+1275.73+2944.75+1275.73+2944.75+1275.73C2944.75+1275.73+2944.75+1275.73+2944.75+1275.75M2944.73+1275.48C2944.73+1275.46+2944.73+1275.46+2944.73+1275.46L2944.73+1275.48M2944.71+1275.22L2944.71+1275.19L2944.71+1275.22M2944.68+1274.95C2944.68+1274.95+2944.68+1274.95+2944.68+1274.93L2944.68+1274.95M2944.66+1274.7C2944.66+1274.68+2944.66+1274.66+2944.66+1274.66C2944.66+1274.68+2944.66+1274.68+2944.66+1274.7M2944.66+1274.44C2944.66+1274.41+2944.66+1274.39+2944.66+1274.37C2944.66+1274.39+2944.66+1274.41+2944.66+1274.44M2944.64+1274.17C2944.64+1274.15+2944.64+1274.13+2944.64+1274.1C2944.64+1274.13+2944.64+1274.15+2944.64+1274.17M2944.62+1273.9C2944.62+1273.9+2944.62+1273.88+2944.62+1273.86C2944.62+1273.88+2944.62+1273.9+2944.62+1273.9M2944.62+1273.66C2944.62+1273.63+2944.6+1273.61+2944.6+1273.57C2944.6+1273.61+2944.62+1273.63+2944.62+1273.66M2944.6+1273.39C2944.6+1273.37+2944.6+1273.35+2944.6+1273.32C2944.6+1273.35+2944.6+1273.37+2944.6+1273.39M2944.57+1273.12C2944.57+1273.1+2944.57+1273.08+2944.57+1273.06C2944.57+1273.08+2944.57+1273.1+2944.57+1273.12M2944.57+1272.86C2944.57+1272.83+2944.57+1272.81+2944.57+1272.77C2944.57+1272.81+2944.57+1272.83+2944.57+1272.86M2944.55+1272.61C2944.55+1272.57+2944.55+1272.52+2944.55+1272.5C2944.55+1272.52+2944.55+1272.57+2944.55+1272.61M2944.55+1272.34C2944.55+1272.3+2944.55+1272.28+2944.55+1272.23C2944.55+1272.28+2944.55+1272.3+2944.55+1272.34M2944.53+1272.08C2944.53+1272.03+2944.53+1272.01+2944.53+1271.96C2944.53+1272.01+2944.53+1272.03+2944.53+1272.08M2944.53+1271.81C2944.53+1271.76+2944.53+1271.72+2944.53+1271.7C2944.53+1271.72+2944.53+1271.76+2944.53+1271.81M2944.53+1271.54C2944.53+1271.5+2944.53+1271.45+2944.53+1271.41C2944.53+1271.45+2944.53+1271.5+2944.53+1271.54M2944.51+1271.27C2944.51+1271.23+2944.51+1271.21+2944.51+1271.18C2944.51+1271.21+2944.51+1271.23+2944.51+1271.27M2944.51+1271.01C2944.51+1270.96+2944.51+1270.94+2944.51+1270.89C2944.51+1270.94+2944.51+1270.96+2944.51+1271.01M2944.51+1270.74C2944.51+1270.69+2944.51+1270.63+2944.51+1270.58C2944.51+1270.63+2944.51+1270.67+2944.51+1270.74M2944.51+1270.47C2944.51+1270.43+2944.51+1270.38+2944.51+1270.34C2944.51+1270.38+2944.51+1270.43+2944.51+1270.47M2944.48+1270.2C2944.48+1270.16+2944.48+1270.11+2944.48+1270.07C2944.48+1270.11+2944.48+1270.16+2944.48+1270.2M2944.48+1269.94C2944.48+1269.87+2944.48+1269.83+2944.48+1269.76C2944.48+1269.83+2944.48+1269.87+2944.48+1269.94M2944.48+1269.67C2944.48+1269.49+2944.48+1269.31+2944.48+1269.13L2944.48+1269.13C2944.48+1269.31+2944.48+1269.49+2944.48+1269.67" opacity="1" fill="#aa2e34"/>
<path d="M3026.69+1352.59C2983.76+1351.94+2948.4+1318.46+2944.8+1276.26L2944.8+1276.26C2944.77+1276.09+2944.75+1275.91+2944.75+1275.75C2944.75+1275.73+2944.75+1275.73+2944.75+1275.73C2944.73+1275.64+2944.73+1275.55+2944.73+1275.48L2944.73+1275.46C2944.73+1275.37+2944.71+1275.31+2944.71+1275.22L2944.71+1275.19C2944.71+1275.1+2944.68+1275.04+2944.68+1274.95L2944.68+1274.93C2944.68+1274.84+2944.68+1274.77+2944.66+1274.7C2944.66+1274.68+2944.66+1274.68+2944.66+1274.66C2944.66+1274.57+2944.66+1274.5+2944.66+1274.44C2944.66+1274.41+2944.66+1274.39+2944.66+1274.37C2944.64+1274.3+2944.64+1274.24+2944.64+1274.17C2944.64+1274.15+2944.64+1274.12+2944.64+1274.1C2944.64+1274.04+2944.62+1273.97+2944.62+1273.9C2944.62+1273.9+2944.62+1273.88+2944.62+1273.86C2944.62+1273.79+2944.62+1273.72+2944.62+1273.66C2944.62+1273.63+2944.59+1273.61+2944.59+1273.57C2944.59+1273.5+2944.59+1273.46+2944.59+1273.39C2944.59+1273.37+2944.59+1273.34+2944.59+1273.32C2944.59+1273.26+2944.59+1273.19+2944.57+1273.12C2944.57+1273.1+2944.57+1273.08+2944.57+1273.06C2944.57+1272.99+2944.57+1272.92+2944.57+1272.85C2944.57+1272.83+2944.57+1272.81+2944.57+1272.77C2944.57+1272.72+2944.55+1272.65+2944.55+1272.61C2944.55+1272.57+2944.55+1272.52+2944.55+1272.5C2944.55+1272.43+2944.55+1272.39+2944.55+1272.34C2944.55+1272.3+2944.55+1272.28+2944.55+1272.23C2944.55+1272.19+2944.55+1272.12+2944.53+1272.07C2944.53+1272.03+2944.53+1272.01+2944.53+1271.96C2944.53+1271.92+2944.53+1271.85+2944.53+1271.81C2944.53+1271.76+2944.53+1271.72+2944.53+1271.7C2944.53+1271.63+2944.53+1271.58+2944.53+1271.54C2944.53+1271.5+2944.53+1271.45+2944.53+1271.41C2944.51+1271.36+2944.51+1271.32+2944.51+1271.27C2944.51+1271.23+2944.51+1271.21+2944.51+1271.18C2944.51+1271.12+2944.51+1271.05+2944.51+1271.01C2944.51+1270.96+2944.51+1270.94+2944.51+1270.89C2944.51+1270.85+2944.51+1270.78+2944.51+1270.74C2944.51+1270.67+2944.51+1270.63+2944.51+1270.58C2944.51+1270.54+2944.51+1270.52+2944.51+1270.47C2944.51+1270.43+2944.51+1270.38+2944.51+1270.34C2944.51+1270.29+2944.48+1270.25+2944.48+1270.2C2944.48+1270.16+2944.48+1270.11+2944.48+1270.07C2944.48+1270.03+2944.48+1269.98+2944.48+1269.94C2944.48+1269.87+2944.48+1269.82+2944.48+1269.76C2944.48+1269.71+2944.48+1269.69+2944.48+1269.67C2944.48+1269.49+2944.48+1269.31+2944.48+1269.13L2944.48+640.746L2944.48+640.746C2944.48+640.568+2944.48+640.389+2944.48+640.211C2944.48+640.189+2944.48+640.167+2944.48+640.122C2944.48+640.055+2944.48+640.011+2944.48+639.944C2944.48+639.899+2944.48+639.855+2944.48+639.81C2944.48+639.766+2944.48+639.721+2944.48+639.676C2944.48+639.632+2944.51+639.587+2944.51+639.565C2944.51+639.498+2944.51+639.454+2944.51+639.409C2944.51+639.365+2944.51+639.342+2944.51+639.298C2944.51+639.253+2944.51+639.209+2944.51+639.142C2944.51+639.097+2944.51+639.03+2944.51+638.986C2944.51+638.941+2944.51+638.919+2944.51+638.874C2944.51+638.83+2944.51+638.763+2944.51+638.719C2944.51+638.674+2944.51+638.652+2944.51+638.607C2944.51+638.563+2944.51+638.518+2944.53+638.473C2944.53+638.429+2944.53+638.384+2944.53+638.34C2944.53+638.295+2944.53+638.251+2944.53+638.184C2944.53+638.162+2944.53+638.117+2944.53+638.072C2944.53+638.028+2944.53+637.961+2944.53+637.916C2944.53+637.872+2944.53+637.85+2944.53+637.827C2944.55+637.761+2944.55+637.716+2944.55+637.649C2944.55+637.605+2944.55+637.582+2944.55+637.56C2944.55+637.493+2944.55+637.449+2944.55+637.382C2944.55+637.36+2944.55+637.315+2944.55+637.293C2944.55+637.226+2944.57+637.159+2944.57+637.114C2944.57+637.07+2944.57+637.048+2944.57+637.025C2944.57+636.959+2944.57+636.892+2944.57+636.825C2944.57+636.803+2944.57+636.78+2944.57+636.758C2944.59+636.691+2944.59+636.624+2944.59+636.557C2944.59+636.535+2944.59+636.513+2944.59+636.491C2944.59+636.424+2944.59+636.379+2944.59+636.312C2944.59+636.29+2944.62+636.246+2944.62+636.223C2944.62+636.156+2944.62+636.09+2944.62+636.023C2944.62+636.001+2944.62+636.001+2944.62+635.978C2944.62+635.911+2944.64+635.845+2944.64+635.778C2944.64+635.755+2944.64+635.733+2944.64+635.711C2944.64+635.644+2944.64+635.577+2944.66+635.51C2944.66+635.488+2944.66+635.466+2944.66+635.444C2944.66+635.377+2944.66+635.288+2944.66+635.221C2944.66+635.221+2944.66+635.198+2944.66+635.176C2944.68+635.109+2944.68+635.043+2944.68+634.953L2944.68+634.931C2944.68+634.842+2944.71+634.775+2944.71+634.708C2944.71+634.686+2944.71+634.664+2944.71+634.664C2944.71+634.575+2944.73+634.508+2944.73+634.419L2944.73+634.396C2944.73+634.33+2944.73+634.241+2944.75+634.174C2944.75+634.151+2944.75+634.151+2944.75+634.129C2944.75+634.04+2944.75+633.973+2944.77+633.884L2944.77+633.884C2944.77+633.795+2944.77+633.706+2944.8+633.617L2944.8+633.617C2948.4+591.421+2983.76+557.937+3026.69+557.29L3026.69+1352.59" opacity="1" fill="#dcdcdc"/>
<path d="M3497.35+557.246C3451.41+557.246+3413.85+594.83+3413.85+640.746L3413.85+1269.13C3413.85+1315.05+3451.41+1352.63+3497.35+1352.63C3543.26+1352.63+3580.83+1315.05+3580.83+1269.13L3580.83+640.746C3580.83+594.83+3543.26+557.246+3497.35+557.246" opacity="1" fill="#ededed"/>
<path d="M3414.11+1275.75C3414.11+1275.73+3414.11+1275.73+3414.09+1275.73C3414.09+1275.73+3414.11+1275.73+3414.11+1275.75M3414.09+1275.48C3414.09+1275.46+3414.09+1275.46+3414.09+1275.46L3414.09+1275.48M3414.07+1275.22L3414.07+1275.19L3414.07+1275.22M3414.05+1274.95C3414.05+1274.95+3414.05+1274.95+3414.05+1274.93L3414.05+1274.95M3414.03+1274.7C3414.03+1274.68+3414.03+1274.66+3414.03+1274.66C3414.03+1274.68+3414.03+1274.68+3414.03+1274.7M3414+1274.44C3414+1274.41+3414+1274.39+3414+1274.37C3414+1274.39+3414+1274.41+3414+1274.44M3414+1274.17C3414+1274.15+3414+1274.13+3413.98+1274.1C3414+1274.13+3414+1274.15+3414+1274.17M3413.98+1273.9C3413.98+1273.9+3413.98+1273.88+3413.98+1273.86C3413.98+1273.88+3413.98+1273.9+3413.98+1273.9M3413.96+1273.66C3413.96+1273.63+3413.96+1273.61+3413.96+1273.57C3413.96+1273.61+3413.96+1273.63+3413.96+1273.66M3413.96+1273.39C3413.96+1273.37+3413.96+1273.35+3413.96+1273.32C3413.96+1273.35+3413.96+1273.37+3413.96+1273.39M3413.94+1273.12C3413.94+1273.1+3413.94+1273.08+3413.94+1273.06C3413.94+1273.08+3413.94+1273.1+3413.94+1273.12M3413.94+1272.86C3413.94+1272.83+3413.91+1272.81+3413.91+1272.77C3413.91+1272.81+3413.94+1272.83+3413.94+1272.86M3413.91+1272.61C3413.91+1272.57+3413.91+1272.52+3413.91+1272.5C3413.91+1272.52+3413.91+1272.57+3413.91+1272.61M3413.91+1272.34C3413.91+1272.3+3413.89+1272.28+3413.89+1272.23C3413.89+1272.28+3413.91+1272.3+3413.91+1272.34M3413.89+1272.08C3413.89+1272.03+3413.89+1272.01+3413.89+1271.96C3413.89+1272.01+3413.89+1272.03+3413.89+1272.08M3413.89+1271.81C3413.89+1271.76+3413.89+1271.72+3413.89+1271.7C3413.89+1271.72+3413.89+1271.76+3413.89+1271.81M3413.87+1271.54C3413.87+1271.5+3413.87+1271.45+3413.87+1271.41C3413.87+1271.45+3413.87+1271.5+3413.87+1271.54M3413.87+1271.27C3413.87+1271.23+3413.87+1271.21+3413.87+1271.18C3413.87+1271.21+3413.87+1271.23+3413.87+1271.27M3413.87+1271.01C3413.87+1270.96+3413.87+1270.94+3413.87+1270.89C3413.87+1270.94+3413.87+1270.96+3413.87+1271.01M3413.87+1270.74C3413.87+1270.69+3413.85+1270.63+3413.85+1270.58C3413.85+1270.63+3413.87+1270.67+3413.87+1270.74M3413.85+1270.47C3413.85+1270.43+3413.85+1270.38+3413.85+1270.34C3413.85+1270.38+3413.85+1270.43+3413.85+1270.47M3413.85+1270.2C3413.85+1270.16+3413.85+1270.11+3413.85+1270.07C3413.85+1270.11+3413.85+1270.16+3413.85+1270.2M3413.85+1269.94C3413.85+1269.87+3413.85+1269.83+3413.85+1269.76C3413.85+1269.83+3413.85+1269.87+3413.85+1269.94M3413.85+1269.67C3413.85+1269.49+3413.85+1269.31+3413.85+1269.13L3413.85+1269.13C3413.85+1269.31+3413.85+1269.49+3413.85+1269.67" opacity="1" fill="#aa2e34"/>
<path d="M3496.06+1352.59C3453.12+1351.94+3417.77+1318.46+3414.14+1276.26L3414.14+1276.26C3414.14+1276.09+3414.12+1275.91+3414.12+1275.75C3414.12+1275.73+3414.09+1275.73+3414.09+1275.73C3414.09+1275.64+3414.09+1275.55+3414.09+1275.48L3414.09+1275.46C3414.07+1275.37+3414.07+1275.31+3414.07+1275.22L3414.07+1275.19C3414.05+1275.1+3414.05+1275.04+3414.05+1274.95L3414.05+1274.93C3414.05+1274.84+3414.03+1274.77+3414.03+1274.7C3414.03+1274.68+3414.03+1274.68+3414.03+1274.66C3414.03+1274.57+3414.03+1274.5+3414+1274.44C3414+1274.41+3414+1274.39+3414+1274.37C3414+1274.3+3414+1274.24+3414+1274.17C3414+1274.15+3414+1274.12+3413.98+1274.1C3413.98+1274.04+3413.98+1273.97+3413.98+1273.9C3413.98+1273.9+3413.98+1273.88+3413.98+1273.86C3413.98+1273.79+3413.96+1273.72+3413.96+1273.66C3413.96+1273.63+3413.96+1273.61+3413.96+1273.57C3413.96+1273.5+3413.96+1273.46+3413.96+1273.39C3413.96+1273.37+3413.96+1273.34+3413.96+1273.32C3413.94+1273.26+3413.94+1273.19+3413.94+1273.12C3413.94+1273.1+3413.94+1273.08+3413.94+1273.06C3413.94+1272.99+3413.94+1272.92+3413.94+1272.85C3413.94+1272.83+3413.91+1272.81+3413.91+1272.77C3413.91+1272.72+3413.91+1272.65+3413.91+1272.61C3413.91+1272.57+3413.91+1272.52+3413.91+1272.5C3413.91+1272.43+3413.91+1272.39+3413.91+1272.34C3413.91+1272.3+3413.89+1272.28+3413.89+1272.23C3413.89+1272.19+3413.89+1272.12+3413.89+1272.07C3413.89+1272.03+3413.89+1272.01+3413.89+1271.96C3413.89+1271.92+3413.89+1271.85+3413.89+1271.81C3413.89+1271.76+3413.89+1271.72+3413.89+1271.7C3413.89+1271.63+3413.87+1271.58+3413.87+1271.54C3413.87+1271.5+3413.87+1271.45+3413.87+1271.41C3413.87+1271.36+3413.87+1271.32+3413.87+1271.27C3413.87+1271.23+3413.87+1271.21+3413.87+1271.18C3413.87+1271.12+3413.87+1271.05+3413.87+1271.01C3413.87+1270.96+3413.87+1270.94+3413.87+1270.89C3413.87+1270.85+3413.87+1270.78+3413.87+1270.74C3413.87+1270.67+3413.85+1270.63+3413.85+1270.58C3413.85+1270.54+3413.85+1270.52+3413.85+1270.47C3413.85+1270.43+3413.85+1270.38+3413.85+1270.34C3413.85+1270.29+3413.85+1270.25+3413.85+1270.2C3413.85+1270.16+3413.85+1270.11+3413.85+1270.07C3413.85+1270.03+3413.85+1269.98+3413.85+1269.94C3413.85+1269.87+3413.85+1269.82+3413.85+1269.76C3413.85+1269.71+3413.85+1269.69+3413.85+1269.67C3413.85+1269.49+3413.85+1269.31+3413.85+1269.13L3413.85+640.746L3413.85+640.746C3413.85+640.568+3413.85+640.389+3413.85+640.211C3413.85+640.189+3413.85+640.167+3413.85+640.122C3413.85+640.055+3413.85+640.011+3413.85+639.944C3413.85+639.899+3413.85+639.855+3413.85+639.81C3413.85+639.766+3413.85+639.721+3413.85+639.676C3413.85+639.632+3413.85+639.587+3413.85+639.565C3413.85+639.498+3413.85+639.454+3413.85+639.409C3413.85+639.365+3413.85+639.342+3413.85+639.298C3413.85+639.253+3413.87+639.209+3413.87+639.142C3413.87+639.097+3413.87+639.03+3413.87+638.986C3413.87+638.941+3413.87+638.919+3413.87+638.874C3413.87+638.83+3413.87+638.763+3413.87+638.719C3413.87+638.674+3413.87+638.652+3413.87+638.607C3413.87+638.563+3413.87+638.518+3413.87+638.473C3413.87+638.429+3413.87+638.384+3413.87+638.34C3413.87+638.295+3413.89+638.251+3413.89+638.184C3413.89+638.162+3413.89+638.117+3413.89+638.072C3413.89+638.028+3413.89+637.961+3413.89+637.916C3413.89+637.872+3413.89+637.85+3413.89+637.827C3413.89+637.761+3413.89+637.716+3413.89+637.649C3413.89+637.605+3413.91+637.582+3413.91+637.56C3413.91+637.493+3413.91+637.449+3413.91+637.382C3413.91+637.36+3413.91+637.315+3413.91+637.293C3413.91+637.226+3413.91+637.159+3413.91+637.114C3413.91+637.07+3413.94+637.048+3413.94+637.025C3413.94+636.959+3413.94+636.892+3413.94+636.825C3413.94+636.803+3413.94+636.78+3413.94+636.758C3413.94+636.691+3413.94+636.624+3413.96+636.557C3413.96+636.535+3413.96+636.513+3413.96+636.491C3413.96+636.424+3413.96+636.379+3413.96+636.312C3413.96+636.29+3413.96+636.246+3413.96+636.223C3413.96+636.156+3413.98+636.09+3413.98+636.023C3413.98+636.001+3413.98+636.001+3413.98+635.978C3413.98+635.911+3413.98+635.845+3413.98+635.778C3414+635.755+3414+635.733+3414+635.711C3414+635.644+3414+635.577+3414+635.51C3414+635.488+3414+635.466+3414+635.444C3414.03+635.377+3414.03+635.288+3414.03+635.221C3414.03+635.221+3414.03+635.198+3414.03+635.176C3414.03+635.109+3414.05+635.043+3414.05+634.953L3414.05+634.931C3414.05+634.842+3414.05+634.775+3414.07+634.708C3414.07+634.686+3414.07+634.664+3414.07+634.664C3414.07+634.575+3414.07+634.508+3414.09+634.419L3414.09+634.396C3414.09+634.33+3414.09+634.241+3414.09+634.174C3414.09+634.151+3414.12+634.151+3414.12+634.129C3414.12+634.04+3414.12+633.973+3414.12+633.884L3414.12+633.884C3414.14+633.795+3414.14+633.706+3414.14+633.617L3414.14+633.617C3417.77+591.421+3453.12+557.937+3496.06+557.29L3496.06+1352.59" opacity="1" fill="#dcdcdc"/>
<path d="M3966.69+557.246C3920.77+557.246+3883.21+594.83+3883.21+640.746L3883.21+1269.13C3883.21+1315.05+3920.77+1352.63+3966.69+1352.63C4012.63+1352.63+4050.19+1315.05+4050.19+1269.13L4050.19+640.746C4050.19+594.83+4012.63+557.246+3966.69+557.246" opacity="1" fill="#ededed"/>
<path d="M3883.59+1277.31L3883.59+1277.29L3883.59+1277.31M3883.57+1277.04C3883.57+1277.04+3883.57+1277.04+3883.57+1277.02C3883.57+1277.04+3883.57+1277.04+3883.57+1277.04M3883.55+1276.8C3883.55+1276.78+3883.55+1276.78+3883.55+1276.75C3883.55+1276.78+3883.55+1276.78+3883.55+1276.8M3883.52+1276.53C3883.52+1276.51+3883.52+1276.51+3883.52+1276.51C3883.52+1276.51+3883.52+1276.51+3883.52+1276.53M3883.5+1276.26L3883.5+1276.24L3883.5+1276.26M3883.48+1276C3883.48+1276+3883.48+1276+3883.48+1275.97L3883.48+1276M3883.46+1275.75C3883.46+1275.73+3883.46+1275.71+3883.46+1275.68C3883.46+1275.71+3883.46+1275.73+3883.46+1275.75M3883.43+1275.48C3883.43+1275.46+3883.43+1275.46+3883.43+1275.44C3883.43+1275.44+3883.43+1275.46+3883.43+1275.48M3883.43+1275.22C3883.41+1275.22+3883.41+1275.19+3883.41+1275.17C3883.41+1275.19+3883.41+1275.22+3883.43+1275.22M3883.41+1274.97C3883.41+1274.95+3883.41+1274.93+3883.39+1274.9C3883.41+1274.93+3883.41+1274.95+3883.41+1274.97M3883.39+1274.7C3883.39+1274.68+3883.39+1274.66+3883.39+1274.64C3883.39+1274.66+3883.39+1274.68+3883.39+1274.7M3883.37+1274.44C3883.37+1274.41+3883.37+1274.39+3883.37+1274.37C3883.37+1274.39+3883.37+1274.41+3883.37+1274.44M3883.35+1274.19C3883.35+1274.15+3883.35+1274.12+3883.35+1274.1C3883.35+1274.12+3883.35+1274.15+3883.35+1274.19M3883.35+1273.92C3883.35+1273.88+3883.35+1273.86+3883.32+1273.84C3883.35+1273.86+3883.35+1273.88+3883.35+1273.92M3883.32+1273.66C3883.32+1273.61+3883.32+1273.59+3883.32+1273.55C3883.32+1273.59+3883.32+1273.61+3883.32+1273.66M3883.3+1273.39C3883.3+1273.37+3883.3+1273.32+3883.3+1273.3C3883.3+1273.32+3883.3+1273.37+3883.3+1273.39M3883.3+1273.12C3883.3+1273.1+3883.3+1273.06+3883.3+1273.03C3883.3+1273.08+3883.3+1273.1+3883.3+1273.12M3883.28+1272.86C3883.28+1272.83+3883.28+1272.81+3883.28+1272.77C3883.28+1272.81+3883.28+1272.83+3883.28+1272.86M3883.28+1272.61C3883.28+1272.57+3883.28+1272.52+3883.28+1272.5C3883.28+1272.52+3883.28+1272.57+3883.28+1272.61M3883.26+1272.34C3883.26+1272.3+3883.26+1272.28+3883.26+1272.23C3883.26+1272.28+3883.26+1272.3+3883.26+1272.34M3883.26+1272.08C3883.26+1272.03+3883.26+1272.01+3883.26+1271.96C3883.26+1272.01+3883.26+1272.03+3883.26+1272.08M3883.23+1271.81C3883.23+1271.76+3883.23+1271.72+3883.23+1271.7C3883.23+1271.72+3883.23+1271.76+3883.23+1271.81M3883.23+1271.54C3883.23+1271.5+3883.23+1271.45+3883.23+1271.41C3883.23+1271.45+3883.23+1271.5+3883.23+1271.54M3883.23+1271.27C3883.23+1271.23+3883.23+1271.21+3883.23+1271.18C3883.23+1271.21+3883.23+1271.23+3883.23+1271.27M3883.21+1271.01C3883.21+1270.96+3883.21+1270.94+3883.21+1270.89C3883.21+1270.94+3883.21+1270.96+3883.21+1271.01M3883.21+1270.74C3883.21+1270.69+3883.21+1270.63+3883.21+1270.58C3883.21+1270.63+3883.21+1270.67+3883.21+1270.74M3883.21+1270.47C3883.21+1270.43+3883.21+1270.38+3883.21+1270.34C3883.21+1270.38+3883.21+1270.43+3883.21+1270.47M3883.21+1270.2C3883.21+1270.16+3883.21+1270.11+3883.21+1270.07C3883.21+1270.11+3883.21+1270.16+3883.21+1270.2M3883.21+1269.94C3883.21+1269.87+3883.21+1269.83+3883.21+1269.76C3883.21+1269.83+3883.21+1269.87+3883.21+1269.94M3883.21+1269.67C3883.21+1269.49+3883.21+1269.31+3883.21+1269.13L3883.21+1269.13C3883.21+1269.31+3883.21+1269.49+3883.21+1269.67" opacity="1" fill="#aa2e34"/>
<path d="M3965.42+1352.59C3922.82+1351.94+3887.69+1319.02+3883.59+1277.31L3883.59+1277.29C3883.59+1277.22+3883.59+1277.13+3883.57+1277.04C3883.57+1277.04+3883.57+1277.04+3883.57+1277.02C3883.57+1276.95+3883.57+1276.86+3883.55+1276.8C3883.55+1276.78+3883.55+1276.78+3883.55+1276.75C3883.55+1276.69+3883.55+1276.6+3883.52+1276.53C3883.52+1276.51+3883.52+1276.51+3883.52+1276.51C3883.52+1276.42+3883.52+1276.35+3883.5+1276.26L3883.5+1276.24C3883.5+1276.15+3883.5+1276.09+3883.48+1276L3883.48+1275.97C3883.48+1275.91+3883.48+1275.82+3883.46+1275.75C3883.46+1275.73+3883.46+1275.71+3883.46+1275.68C3883.46+1275.62+3883.46+1275.55+3883.43+1275.48C3883.43+1275.46+3883.43+1275.44+3883.43+1275.44C3883.43+1275.37+3883.43+1275.31+3883.43+1275.22C3883.41+1275.22+3883.41+1275.19+3883.41+1275.17C3883.41+1275.1+3883.41+1275.04+3883.41+1274.97C3883.41+1274.95+3883.41+1274.93+3883.39+1274.9C3883.39+1274.84+3883.39+1274.77+3883.39+1274.7C3883.39+1274.68+3883.39+1274.66+3883.39+1274.64C3883.37+1274.57+3883.37+1274.5+3883.37+1274.44C3883.37+1274.41+3883.37+1274.39+3883.37+1274.37C3883.37+1274.3+3883.37+1274.24+3883.35+1274.19C3883.35+1274.15+3883.35+1274.12+3883.35+1274.1C3883.35+1274.04+3883.35+1273.97+3883.35+1273.92C3883.35+1273.88+3883.35+1273.86+3883.32+1273.83C3883.32+1273.77+3883.32+1273.72+3883.32+1273.66C3883.32+1273.61+3883.32+1273.59+3883.32+1273.55C3883.32+1273.5+3883.32+1273.46+3883.3+1273.39C3883.3+1273.37+3883.3+1273.32+3883.3+1273.3C3883.3+1273.23+3883.3+1273.19+3883.3+1273.12C3883.3+1273.1+3883.3+1273.08+3883.3+1273.03C3883.28+1272.99+3883.28+1272.92+3883.28+1272.85C3883.28+1272.83+3883.28+1272.81+3883.28+1272.77C3883.28+1272.72+3883.28+1272.65+3883.28+1272.61C3883.28+1272.57+3883.28+1272.52+3883.28+1272.5C3883.26+1272.43+3883.26+1272.39+3883.26+1272.34C3883.26+1272.3+3883.26+1272.28+3883.26+1272.23C3883.26+1272.19+3883.26+1272.12+3883.26+1272.07C3883.26+1272.03+3883.26+1272.01+3883.26+1271.96C3883.26+1271.92+3883.26+1271.85+3883.23+1271.81C3883.23+1271.76+3883.23+1271.72+3883.23+1271.7C3883.23+1271.63+3883.23+1271.58+3883.23+1271.54C3883.23+1271.5+3883.23+1271.45+3883.23+1271.41C3883.23+1271.36+3883.23+1271.32+3883.23+1271.27C3883.23+1271.23+3883.23+1271.21+3883.23+1271.18C3883.23+1271.12+3883.23+1271.05+3883.21+1271.01C3883.21+1270.96+3883.21+1270.94+3883.21+1270.89C3883.21+1270.85+3883.21+1270.78+3883.21+1270.74C3883.21+1270.67+3883.21+1270.63+3883.21+1270.58C3883.21+1270.54+3883.21+1270.52+3883.21+1270.47C3883.21+1270.43+3883.21+1270.38+3883.21+1270.34C3883.21+1270.29+3883.21+1270.25+3883.21+1270.2C3883.21+1270.16+3883.21+1270.11+3883.21+1270.07C3883.21+1270.03+3883.21+1269.98+3883.21+1269.94C3883.21+1269.87+3883.21+1269.82+3883.21+1269.76C3883.21+1269.71+3883.21+1269.69+3883.21+1269.67C3883.21+1269.49+3883.21+1269.31+3883.21+1269.13L3883.21+640.746L3883.21+640.746C3883.21+640.568+3883.21+640.389+3883.21+640.211C3883.21+640.189+3883.21+640.167+3883.21+640.122C3883.21+640.055+3883.21+640.011+3883.21+639.944C3883.21+639.899+3883.21+639.855+3883.21+639.81C3883.21+639.766+3883.21+639.721+3883.21+639.676C3883.21+639.632+3883.21+639.587+3883.21+639.565C3883.21+639.498+3883.21+639.454+3883.21+639.409C3883.21+639.365+3883.21+639.342+3883.21+639.298C3883.21+639.253+3883.21+639.209+3883.21+639.142C3883.21+639.097+3883.21+639.03+3883.21+638.986C3883.21+638.941+3883.21+638.919+3883.21+638.874C3883.23+638.83+3883.23+638.763+3883.23+638.719C3883.23+638.674+3883.23+638.652+3883.23+638.607C3883.23+638.563+3883.23+638.518+3883.23+638.473C3883.23+638.429+3883.23+638.384+3883.23+638.34C3883.23+638.295+3883.23+638.251+3883.23+638.184C3883.23+638.162+3883.23+638.117+3883.23+638.072C3883.26+638.028+3883.26+637.961+3883.26+637.916C3883.26+637.872+3883.26+637.85+3883.26+637.827C3883.26+637.761+3883.26+637.716+3883.26+637.649C3883.26+637.605+3883.26+637.582+3883.26+637.56C3883.26+637.493+3883.26+637.449+3883.28+637.382C3883.28+637.36+3883.28+637.315+3883.28+637.293C3883.28+637.226+3883.28+637.159+3883.28+637.114C3883.28+637.07+3883.28+637.048+3883.28+637.025C3883.28+636.959+3883.28+636.914+3883.3+636.847C3883.3+636.825+3883.3+636.78+3883.3+636.758C3883.3+636.691+3883.3+636.647+3883.3+636.58C3883.3+636.557+3883.3+636.513+3883.3+636.491C3883.32+636.446+3883.32+636.379+3883.32+636.335C3883.32+636.29+3883.32+636.268+3883.32+636.223C3883.32+636.156+3883.32+636.112+3883.32+636.045C3883.35+636.023+3883.35+636.001+3883.35+635.956C3883.35+635.911+3883.35+635.845+3883.35+635.8C3883.35+635.755+3883.35+635.733+3883.35+635.711C3883.37+635.644+3883.37+635.577+3883.37+635.51C3883.37+635.488+3883.37+635.466+3883.37+635.444C3883.37+635.377+3883.37+635.31+3883.39+635.243C3883.39+635.221+3883.39+635.198+3883.39+635.176C3883.39+635.109+3883.39+635.043+3883.39+634.976C3883.41+634.953+3883.41+634.931+3883.41+634.909C3883.41+634.842+3883.41+634.775+3883.41+634.708C3883.41+634.686+3883.41+634.664+3883.43+634.664C3883.43+634.575+3883.43+634.508+3883.43+634.441L3883.43+634.396C3883.46+634.33+3883.46+634.263+3883.46+634.196C3883.46+634.174+3883.46+634.151+3883.46+634.129C3883.48+634.062+3883.48+633.995+3883.48+633.906L3883.48+633.884C3883.5+633.795+3883.5+633.728+3883.5+633.661C3883.5+633.639+3883.5+633.617+3883.5+633.617C3883.52+633.528+3883.52+633.461+3883.52+633.394C3883.52+633.372+3883.52+633.372+3883.52+633.349C3883.55+633.283+3883.55+633.193+3883.55+633.127C3883.55+633.104+3883.55+633.104+3883.55+633.082C3883.57+633.015+3883.57+632.926+3883.57+632.859C3883.57+632.837+3883.57+632.837+3883.57+632.837C3883.59+632.748+3883.59+632.659+3883.59+632.592L3883.59+632.57C3883.61+632.481+3883.61+632.414+3883.63+632.325L3883.63+632.325C3887.85+590.731+3922.91+557.937+3965.42+557.29L3965.42+1352.59" opacity="1" fill="#dcdcdc"/>
<path d="M4436.05+557.246C4390.14+557.246+4352.55+594.83+4352.55+640.746L4352.55+1269.13C4352.55+1315.05+4390.14+1352.63+4436.05+1352.63C4481.97+1352.63+4519.55+1315.05+4519.55+1269.13L4519.55+640.746C4519.55+594.83+4481.97+557.246+4436.05+557.246" opacity="1" fill="#ededed"/>
<path d="M4352.95+1277.31L4352.95+1277.29L4352.95+1277.31M4352.93+1277.04C4352.93+1277.04+4352.93+1277.04+4352.93+1277.02C4352.93+1277.04+4352.93+1277.04+4352.93+1277.04M4352.91+1276.8C4352.91+1276.78+4352.91+1276.78+4352.91+1276.75C4352.91+1276.78+4352.91+1276.78+4352.91+1276.8M4352.89+1276.53C4352.89+1276.51+4352.89+1276.51+4352.89+1276.51C4352.89+1276.51+4352.89+1276.51+4352.89+1276.53M4352.87+1276.26L4352.87+1276.24L4352.87+1276.26M4352.84+1276C4352.84+1276+4352.84+1276+4352.84+1275.97L4352.84+1276M4352.82+1275.75C4352.82+1275.73+4352.82+1275.71+4352.82+1275.68C4352.82+1275.71+4352.82+1275.73+4352.82+1275.75M4352.8+1275.48C4352.8+1275.46+4352.8+1275.46+4352.8+1275.44C4352.8+1275.44+4352.8+1275.46+4352.8+1275.48M4352.78+1275.22C4352.78+1275.22+4352.78+1275.19+4352.78+1275.17C4352.78+1275.19+4352.78+1275.22+4352.78+1275.22M4352.75+1274.97C4352.75+1274.95+4352.75+1274.93+4352.75+1274.9C4352.75+1274.93+4352.75+1274.95+4352.75+1274.97M4352.75+1274.7C4352.73+1274.68+4352.73+1274.66+4352.73+1274.64C4352.73+1274.66+4352.73+1274.68+4352.75+1274.7M4352.73+1274.44C4352.73+1274.41+4352.73+1274.39+4352.73+1274.37C4352.73+1274.39+4352.73+1274.41+4352.73+1274.44M4352.71+1274.19C4352.71+1274.15+4352.71+1274.12+4352.71+1274.1C4352.71+1274.12+4352.71+1274.15+4352.71+1274.19M4352.69+1273.92C4352.69+1273.88+4352.69+1273.86+4352.69+1273.84C4352.69+1273.86+4352.69+1273.88+4352.69+1273.92M4352.69+1273.66C4352.69+1273.61+4352.69+1273.59+4352.66+1273.55C4352.69+1273.59+4352.69+1273.61+4352.69+1273.66M4352.66+1273.39C4352.66+1273.37+4352.66+1273.32+4352.66+1273.3C4352.66+1273.32+4352.66+1273.37+4352.66+1273.39M4352.66+1273.12C4352.64+1273.1+4352.64+1273.06+4352.64+1273.03C4352.64+1273.08+4352.64+1273.1+4352.66+1273.12M4352.64+1272.86C4352.64+1272.83+4352.64+1272.81+4352.64+1272.77C4352.64+1272.81+4352.64+1272.83+4352.64+1272.86M4352.62+1272.61C4352.62+1272.57+4352.62+1272.52+4352.62+1272.5C4352.62+1272.52+4352.62+1272.57+4352.62+1272.61M4352.62+1272.34C4352.62+1272.3+4352.62+1272.28+4352.62+1272.23C4352.62+1272.28+4352.62+1272.3+4352.62+1272.34M4352.62+1272.08C4352.6+1272.03+4352.6+1272.01+4352.6+1271.96C4352.6+1272.01+4352.6+1272.03+4352.62+1272.08M4352.6+1271.81C4352.6+1271.76+4352.6+1271.72+4352.6+1271.7C4352.6+1271.72+4352.6+1271.76+4352.6+1271.81M4352.6+1271.54C4352.6+1271.5+4352.6+1271.45+4352.6+1271.41C4352.6+1271.45+4352.6+1271.5+4352.6+1271.54M4352.58+1271.27C4352.58+1271.23+4352.58+1271.21+4352.58+1271.18C4352.58+1271.21+4352.58+1271.23+4352.58+1271.27M4352.58+1271.01C4352.58+1270.96+4352.58+1270.94+4352.58+1270.89C4352.58+1270.94+4352.58+1270.96+4352.58+1271.01M4352.58+1270.74C4352.58+1270.69+4352.58+1270.63+4352.58+1270.58C4352.58+1270.63+4352.58+1270.67+4352.58+1270.74M4352.58+1270.47C4352.58+1270.43+4352.58+1270.38+4352.58+1270.34C4352.58+1270.38+4352.58+1270.43+4352.58+1270.47M4352.58+1270.2C4352.58+1270.16+4352.58+1270.11+4352.55+1270.07C4352.58+1270.11+4352.58+1270.16+4352.58+1270.2M4352.55+1269.94C4352.55+1269.87+4352.55+1269.83+4352.55+1269.76C4352.55+1269.83+4352.55+1269.87+4352.55+1269.94M4352.55+1269.67C4352.55+1269.49+4352.55+1269.31+4352.55+1269.13L4352.55+1269.13C4352.55+1269.31+4352.55+1269.49+4352.55+1269.67" opacity="1" fill="#aa2e34"/>
<path d="M4434.78+1352.59C4392.19+1351.94+4357.05+1319.02+4352.95+1277.31L4352.95+1277.29C4352.95+1277.22+4352.93+1277.13+4352.93+1277.04C4352.93+1277.04+4352.93+1277.04+4352.93+1277.02C4352.93+1276.95+4352.91+1276.86+4352.91+1276.8C4352.91+1276.78+4352.91+1276.78+4352.91+1276.75C4352.91+1276.69+4352.89+1276.6+4352.89+1276.53C4352.89+1276.51+4352.89+1276.51+4352.89+1276.51C4352.89+1276.42+4352.87+1276.35+4352.87+1276.26L4352.87+1276.24C4352.84+1276.15+4352.84+1276.09+4352.84+1276L4352.84+1275.97C4352.84+1275.91+4352.82+1275.82+4352.82+1275.75C4352.82+1275.73+4352.82+1275.71+4352.82+1275.68C4352.82+1275.62+4352.8+1275.55+4352.8+1275.48C4352.8+1275.46+4352.8+1275.44+4352.8+1275.44C4352.8+1275.37+4352.78+1275.31+4352.78+1275.22C4352.78+1275.22+4352.78+1275.19+4352.78+1275.17C4352.78+1275.1+4352.78+1275.04+4352.75+1274.97C4352.75+1274.95+4352.75+1274.93+4352.75+1274.9C4352.75+1274.84+4352.75+1274.77+4352.75+1274.7C4352.73+1274.68+4352.73+1274.66+4352.73+1274.64C4352.73+1274.57+4352.73+1274.5+4352.73+1274.44C4352.73+1274.41+4352.73+1274.39+4352.73+1274.37C4352.71+1274.3+4352.71+1274.24+4352.71+1274.19C4352.71+1274.15+4352.71+1274.12+4352.71+1274.1C4352.71+1274.04+4352.71+1273.97+4352.69+1273.92C4352.69+1273.88+4352.69+1273.86+4352.69+1273.83C4352.69+1273.77+4352.69+1273.72+4352.69+1273.66C4352.69+1273.61+4352.69+1273.59+4352.67+1273.55C4352.67+1273.5+4352.67+1273.46+4352.67+1273.39C4352.67+1273.37+4352.67+1273.32+4352.67+1273.3C4352.67+1273.23+4352.67+1273.19+4352.67+1273.12C4352.64+1273.1+4352.64+1273.08+4352.64+1273.03C4352.64+1272.99+4352.64+1272.92+4352.64+1272.85C4352.64+1272.83+4352.64+1272.81+4352.64+1272.77C4352.64+1272.72+4352.64+1272.65+4352.62+1272.61C4352.62+1272.57+4352.62+1272.52+4352.62+1272.5C4352.62+1272.43+4352.62+1272.39+4352.62+1272.34C4352.62+1272.3+4352.62+1272.28+4352.62+1272.23C4352.62+1272.19+4352.62+1272.12+4352.62+1272.07C4352.6+1272.03+4352.6+1272.01+4352.6+1271.96C4352.6+1271.92+4352.6+1271.85+4352.6+1271.81C4352.6+1271.76+4352.6+1271.72+4352.6+1271.7C4352.6+1271.63+4352.6+1271.58+4352.6+1271.54C4352.6+1271.5+4352.6+1271.45+4352.6+1271.41C4352.6+1271.36+4352.6+1271.32+4352.58+1271.27C4352.58+1271.23+4352.58+1271.21+4352.58+1271.18C4352.58+1271.12+4352.58+1271.05+4352.58+1271.01C4352.58+1270.96+4352.58+1270.94+4352.58+1270.89C4352.58+1270.85+4352.58+1270.78+4352.58+1270.74C4352.58+1270.67+4352.58+1270.63+4352.58+1270.58C4352.58+1270.54+4352.58+1270.52+4352.58+1270.47C4352.58+1270.43+4352.58+1270.38+4352.58+1270.34C4352.58+1270.29+4352.58+1270.25+4352.58+1270.2C4352.58+1270.16+4352.58+1270.11+4352.55+1270.07C4352.55+1270.03+4352.55+1269.98+4352.55+1269.94C4352.55+1269.87+4352.55+1269.82+4352.55+1269.76C4352.55+1269.71+4352.55+1269.69+4352.55+1269.67C4352.55+1269.49+4352.55+1269.31+4352.55+1269.13L4352.55+640.746L4352.55+640.746C4352.55+640.568+4352.55+640.389+4352.55+640.211C4352.55+640.189+4352.55+640.167+4352.55+640.122C4352.55+640.055+4352.55+640.011+4352.55+639.944C4352.55+639.899+4352.55+639.855+4352.55+639.81C4352.58+639.766+4352.58+639.721+4352.58+639.676C4352.58+639.632+4352.58+639.587+4352.58+639.565C4352.58+639.498+4352.58+639.454+4352.58+639.409C4352.58+639.365+4352.58+639.342+4352.58+639.298C4352.58+639.253+4352.58+639.209+4352.58+639.142C4352.58+639.097+4352.58+639.03+4352.58+638.986C4352.58+638.941+4352.58+638.919+4352.58+638.874C4352.58+638.83+4352.58+638.763+4352.58+638.719C4352.58+638.674+4352.58+638.652+4352.58+638.607C4352.6+638.563+4352.6+638.518+4352.6+638.473C4352.6+638.429+4352.6+638.384+4352.6+638.34C4352.6+638.295+4352.6+638.251+4352.6+638.184C4352.6+638.162+4352.6+638.117+4352.6+638.072C4352.6+638.028+4352.6+637.961+4352.6+637.916C4352.6+637.872+4352.6+637.85+4352.62+637.827C4352.62+637.761+4352.62+637.716+4352.62+637.649C4352.62+637.605+4352.62+637.582+4352.62+637.56C4352.62+637.493+4352.62+637.449+4352.62+637.382C4352.62+637.36+4352.62+637.315+4352.62+637.293C4352.64+637.226+4352.64+637.159+4352.64+637.114C4352.64+637.07+4352.64+637.048+4352.64+637.025C4352.64+636.959+4352.64+636.914+4352.64+636.847C4352.64+636.825+4352.64+636.78+4352.67+636.758C4352.67+636.691+4352.67+636.647+4352.67+636.58C4352.67+636.557+4352.67+636.513+4352.67+636.491C4352.67+636.446+4352.67+636.379+4352.67+636.335C4352.69+636.29+4352.69+636.268+4352.69+636.223C4352.69+636.156+4352.69+636.112+4352.69+636.045C4352.69+636.023+4352.69+636.001+4352.69+635.956C4352.71+635.911+4352.71+635.845+4352.71+635.8C4352.71+635.755+4352.71+635.733+4352.71+635.711C4352.71+635.644+4352.71+635.577+4352.73+635.51C4352.73+635.488+4352.73+635.466+4352.73+635.444C4352.73+635.377+4352.73+635.31+4352.73+635.243C4352.73+635.221+4352.73+635.198+4352.75+635.176C4352.75+635.109+4352.75+635.043+4352.75+634.976C4352.75+634.953+4352.75+634.931+4352.75+634.909C4352.78+634.842+4352.78+634.775+4352.78+634.708C4352.78+634.686+4352.78+634.664+4352.78+634.664C4352.78+634.575+4352.8+634.508+4352.8+634.441L4352.8+634.396C4352.8+634.33+4352.82+634.263+4352.82+634.196C4352.82+634.174+4352.82+634.151+4352.82+634.129C4352.82+634.062+4352.84+633.995+4352.84+633.906L4352.84+633.884C4352.84+633.795+4352.84+633.728+4352.87+633.661C4352.87+633.639+4352.87+633.617+4352.87+633.617C4352.87+633.528+4352.89+633.461+4352.89+633.394C4352.89+633.372+4352.89+633.372+4352.89+633.349C4352.89+633.283+4352.91+633.193+4352.91+633.127C4352.91+633.104+4352.91+633.104+4352.91+633.082C4352.91+633.015+4352.93+632.926+4352.93+632.859C4352.93+632.837+4352.93+632.837+4352.93+632.837C4352.93+632.748+4352.95+632.659+4352.95+632.592L4352.95+632.57C4352.98+632.481+4352.98+632.414+4352.98+632.325L4352.98+632.325C4357.21+590.731+4392.28+557.937+4434.78+557.29L4434.78+1352.59" opacity="1" fill="#dcdcdc"/>
<path d="M4905.42+557.246C4859.48+557.246+4821.92+594.83+4821.92+640.746L4821.92+1269.13C4821.92+1315.05+4859.48+1352.63+4905.42+1352.63C4951.33+1352.63+4988.9+1315.05+4988.9+1269.13L4988.9+640.746C4988.9+594.83+4951.33+557.246+4905.42+557.246" opacity="1" fill="#ededed"/>
<path d="M4822.19+1275.75C4822.19+1275.73+4822.19+1275.73+4822.19+1275.73C4822.19+1275.73+4822.19+1275.73+4822.19+1275.75M4822.16+1275.48C4822.16+1275.46+4822.16+1275.46+4822.16+1275.46L4822.16+1275.48M4822.14+1275.22L4822.14+1275.19L4822.14+1275.22M4822.12+1274.95C4822.12+1274.95+4822.12+1274.95+4822.12+1274.93L4822.12+1274.95M4822.1+1274.7C4822.1+1274.68+4822.1+1274.66+4822.1+1274.66C4822.1+1274.68+4822.1+1274.68+4822.1+1274.7M4822.07+1274.44C4822.07+1274.41+4822.07+1274.39+4822.07+1274.37C4822.07+1274.39+4822.07+1274.41+4822.07+1274.44M4822.07+1274.17C4822.07+1274.15+4822.07+1274.13+4822.07+1274.1C4822.07+1274.13+4822.07+1274.15+4822.07+1274.17M4822.05+1273.9C4822.05+1273.9+4822.05+1273.88+4822.05+1273.86C4822.05+1273.88+4822.05+1273.9+4822.05+1273.9M4822.03+1273.66C4822.03+1273.63+4822.03+1273.61+4822.03+1273.57C4822.03+1273.61+4822.03+1273.63+4822.03+1273.66M4822.03+1273.39C4822.03+1273.37+4822.03+1273.35+4822.03+1273.32C4822.03+1273.35+4822.03+1273.37+4822.03+1273.39M4822.01+1273.12C4822.01+1273.1+4822.01+1273.08+4822.01+1273.06C4822.01+1273.08+4822.01+1273.1+4822.01+1273.12M4822.01+1272.86C4822.01+1272.83+4822.01+1272.81+4822.01+1272.77C4822.01+1272.81+4822.01+1272.83+4822.01+1272.86M4821.98+1272.61C4821.98+1272.57+4821.98+1272.52+4821.98+1272.5C4821.98+1272.52+4821.98+1272.57+4821.98+1272.61M4821.98+1272.34C4821.98+1272.3+4821.98+1272.28+4821.98+1272.23C4821.98+1272.28+4821.98+1272.3+4821.98+1272.34M4821.96+1272.08C4821.96+1272.03+4821.96+1272.01+4821.96+1271.96C4821.96+1272.01+4821.96+1272.03+4821.96+1272.08M4821.96+1271.81C4821.96+1271.76+4821.96+1271.72+4821.96+1271.7C4821.96+1271.72+4821.96+1271.76+4821.96+1271.81M4821.96+1271.54C4821.94+1271.5+4821.94+1271.45+4821.94+1271.41C4821.94+1271.45+4821.94+1271.5+4821.96+1271.54M4821.94+1271.27C4821.94+1271.23+4821.94+1271.21+4821.94+1271.18C4821.94+1271.21+4821.94+1271.23+4821.94+1271.27M4821.94+1271.01C4821.94+1270.96+4821.94+1270.94+4821.94+1270.89C4821.94+1270.94+4821.94+1270.96+4821.94+1271.01M4821.94+1270.74C4821.94+1270.69+4821.94+1270.63+4821.94+1270.58C4821.94+1270.63+4821.94+1270.67+4821.94+1270.74M4821.92+1270.47C4821.92+1270.43+4821.92+1270.38+4821.92+1270.34C4821.92+1270.38+4821.92+1270.43+4821.92+1270.47M4821.92+1270.2C4821.92+1270.16+4821.92+1270.11+4821.92+1270.07C4821.92+1270.11+4821.92+1270.16+4821.92+1270.2M4821.92+1269.94C4821.92+1269.87+4821.92+1269.83+4821.92+1269.76C4821.92+1269.83+4821.92+1269.87+4821.92+1269.94M4821.92+1269.67C4821.92+1269.49+4821.92+1269.31+4821.92+1269.13L4821.92+1269.13C4821.92+1269.31+4821.92+1269.49+4821.92+1269.67" opacity="1" fill="#aa2e34"/>
<path d="M4904.13+1352.59C4861.19+1351.94+4825.84+1318.46+4822.23+1276.26L4822.23+1276.26C4822.21+1276.09+4822.18+1275.91+4822.18+1275.75C4822.18+1275.73+4822.18+1275.73+4822.18+1275.73C4822.16+1275.64+4822.16+1275.55+4822.16+1275.48L4822.16+1275.46C4822.14+1275.37+4822.14+1275.31+4822.14+1275.22L4822.14+1275.19C4822.14+1275.1+4822.12+1275.04+4822.12+1274.95L4822.12+1274.93C4822.12+1274.84+4822.1+1274.77+4822.1+1274.7C4822.1+1274.68+4822.1+1274.68+4822.1+1274.66C4822.1+1274.57+4822.1+1274.5+4822.07+1274.44C4822.07+1274.41+4822.07+1274.39+4822.07+1274.37C4822.07+1274.3+4822.07+1274.24+4822.07+1274.17C4822.07+1274.15+4822.07+1274.12+4822.07+1274.1C4822.05+1274.04+4822.05+1273.97+4822.05+1273.9C4822.05+1273.9+4822.05+1273.88+4822.05+1273.86C4822.05+1273.79+4822.05+1273.72+4822.03+1273.66C4822.03+1273.63+4822.03+1273.61+4822.03+1273.57C4822.03+1273.5+4822.03+1273.46+4822.03+1273.39C4822.03+1273.37+4822.03+1273.34+4822.03+1273.32C4822.01+1273.26+4822.01+1273.19+4822.01+1273.12C4822.01+1273.1+4822.01+1273.08+4822.01+1273.06C4822.01+1272.99+4822.01+1272.92+4822.01+1272.85C4822.01+1272.83+4822.01+1272.81+4822.01+1272.77C4821.98+1272.72+4821.98+1272.65+4821.98+1272.61C4821.98+1272.57+4821.98+1272.52+4821.98+1272.5C4821.98+1272.43+4821.98+1272.39+4821.98+1272.34C4821.98+1272.3+4821.98+1272.28+4821.98+1272.23C4821.96+1272.19+4821.96+1272.12+4821.96+1272.07C4821.96+1272.03+4821.96+1272.01+4821.96+1271.96C4821.96+1271.92+4821.96+1271.85+4821.96+1271.81C4821.96+1271.76+4821.96+1271.72+4821.96+1271.7C4821.96+1271.63+4821.96+1271.58+4821.96+1271.54C4821.94+1271.5+4821.94+1271.45+4821.94+1271.41C4821.94+1271.36+4821.94+1271.32+4821.94+1271.27C4821.94+1271.23+4821.94+1271.21+4821.94+1271.18C4821.94+1271.12+4821.94+1271.05+4821.94+1271.01C4821.94+1270.96+4821.94+1270.94+4821.94+1270.89C4821.94+1270.85+4821.94+1270.78+4821.94+1270.74C4821.94+1270.67+4821.94+1270.63+4821.94+1270.58C4821.92+1270.54+4821.92+1270.52+4821.92+1270.47C4821.92+1270.43+4821.92+1270.38+4821.92+1270.34C4821.92+1270.29+4821.92+1270.25+4821.92+1270.2C4821.92+1270.16+4821.92+1270.11+4821.92+1270.07C4821.92+1270.03+4821.92+1269.98+4821.92+1269.94C4821.92+1269.87+4821.92+1269.82+4821.92+1269.76C4821.92+1269.71+4821.92+1269.69+4821.92+1269.67C4821.92+1269.49+4821.92+1269.31+4821.92+1269.13L4821.92+640.746L4821.92+640.746C4821.92+640.568+4821.92+640.389+4821.92+640.211C4821.92+640.189+4821.92+640.167+4821.92+640.122C4821.92+640.055+4821.92+640.011+4821.92+639.944C4821.92+639.899+4821.92+639.855+4821.92+639.81C4821.92+639.766+4821.92+639.721+4821.92+639.676C4821.92+639.632+4821.92+639.587+4821.92+639.565C4821.92+639.498+4821.92+639.454+4821.92+639.409C4821.92+639.365+4821.92+639.342+4821.94+639.298C4821.94+639.253+4821.94+639.209+4821.94+639.142C4821.94+639.097+4821.94+639.03+4821.94+638.986C4821.94+638.941+4821.94+638.919+4821.94+638.874C4821.94+638.83+4821.94+638.763+4821.94+638.719C4821.94+638.674+4821.94+638.652+4821.94+638.607C4821.94+638.563+4821.94+638.518+4821.94+638.473C4821.94+638.429+4821.94+638.384+4821.96+638.34C4821.96+638.295+4821.96+638.251+4821.96+638.184C4821.96+638.162+4821.96+638.117+4821.96+638.072C4821.96+638.028+4821.96+637.961+4821.96+637.916C4821.96+637.872+4821.96+637.85+4821.96+637.827C4821.96+637.761+4821.96+637.716+4821.98+637.649C4821.98+637.605+4821.98+637.582+4821.98+637.56C4821.98+637.493+4821.98+637.449+4821.98+637.382C4821.98+637.36+4821.98+637.315+4821.98+637.293C4821.98+637.226+4821.98+637.159+4822.01+637.114C4822.01+637.07+4822.01+637.048+4822.01+637.025C4822.01+636.959+4822.01+636.892+4822.01+636.825C4822.01+636.803+4822.01+636.78+4822.01+636.758C4822.01+636.691+4822.01+636.624+4822.03+636.557C4822.03+636.535+4822.03+636.513+4822.03+636.491C4822.03+636.424+4822.03+636.379+4822.03+636.312C4822.03+636.29+4822.03+636.246+4822.03+636.223C4822.05+636.156+4822.05+636.09+4822.05+636.023C4822.05+636.001+4822.05+636.001+4822.05+635.978C4822.05+635.911+4822.05+635.845+4822.07+635.778C4822.07+635.755+4822.07+635.733+4822.07+635.711C4822.07+635.644+4822.07+635.577+4822.07+635.51C4822.07+635.488+4822.07+635.466+4822.07+635.444C4822.1+635.377+4822.1+635.288+4822.1+635.221C4822.1+635.221+4822.1+635.198+4822.1+635.176C4822.1+635.109+4822.12+635.043+4822.12+634.953L4822.12+634.931C4822.12+634.842+4822.14+634.775+4822.14+634.708C4822.14+634.686+4822.14+634.664+4822.14+634.664C4822.14+634.575+4822.14+634.508+4822.16+634.419L4822.16+634.396C4822.16+634.33+4822.16+634.241+4822.18+634.174C4822.18+634.151+4822.18+634.151+4822.18+634.129C4822.18+634.04+4822.18+633.973+4822.21+633.884L4822.21+633.884C4822.21+633.795+4822.21+633.706+4822.23+633.617L4822.23+633.617C4825.84+591.421+4861.19+557.937+4904.13+557.29L4904.13+1352.59" opacity="1" fill="#dcdcdc"/>
<path d="M2380.85+2817.25C2357.48+2816.36+2334.16+2815.13+2310.99+2815.4C2287.86+2815.53+2264.89+2817.16+2242.75+2821.35C2198.53+2829.9+2157.51+2849.89+2119.26+2873.99C2081.14+2897.83+2047.43+2927.06+2027.9+2963.64C2022.84+2972.73+2018.76+2982.38+2015.2+2992.18C2011.63+3002+2008.76+3012.1+2006.75+3022.39C2004.7+3032.68+2003.19+3043.11+2002.56+3053.6C2001.94+3064.09+2001.85+3074.61+2002.39+3085.1C2003.72+3106.04+2007.47+3127.05+2013.55+3147.48C2016.53+3157.71+2019.99+3167.85+2023.97+3177.83C2027.94+3187.81+2032.28+3197.68+2037.19+3207.32C2046.83+3226.66+2058.26+3245.37+2070.63+3263.2C2083.06+3280.95+2096.71+3297.6+2111.66+3312.59C2126.66+3327.56+2142.7+3340.88+2160.14+3352.18C2177.63+3363.52+2196.54+3373.05+2216.37+3380.98C2236.16+3388.89+2256.87+3395.51+2277.97+3400.52C2298.96+3405.51+2319.99+3408.94+2340.57+3409.88C2361.14+3410.9+2381.3+3409.59+2400.26+3405.13L2407.3+3403.31C2409.64+3402.73+2411.89+3401.84+2414.18+3401.15C2418.82+3399.81+2423.25+3397.8+2427.8+3396.09C2430.02+3395.13+2432.21+3394.04+2434.41+3393.01L2437.73+3391.5L2440.96+3389.74L2447.42+3386.22L2453.73+3382.37C2487.23+3361.33+2515.24+3329.36+2534.02+3292.85C2553.13+3256+2563.74+3214.01+2568.08+3170.74C2570.22+3149.09+2570.78+3126.99+2570.02+3104.95C2569.33+3083.19+2567.1+3062.07+2561.4+3043.15C2558.59+3033.71+2554.87+3024.88+2550.33+3016.84C2545.69+3008.75+2540.32+3001.69+2533.44+2995.08C2526.56+2988.48+2518.42+2982.35+2509.49+2976.58C2505.03+2973.71+2500.33+2970.88+2495.59+2968.16C2493.2+2966.8+2490.84+2965.4+2488.46+2964.09L2481.2+2960.21C2461.79+2949.92+2441.27+2941.76+2420.27+2935.12C2399.23+2928.42+2377.47+2924.14+2355.46+2921.67C2333.45+2919.15+2311.12+2919.33+2288.96+2921.56C2266.77+2923.85+2244.82+2929.04+2223.39+2936.24C2220.72+2937.11+2218.11+2938.2+2215.44+2939.16C2212.81+2940.2+2210.11+2941.07+2207.53+2942.25C2202.36+2944.55+2197.06+2946.64+2192+2949.2C2189.44+2950.45+2186.85+2951.65+2184.31+2952.95L2176.81+2957.05L2173.04+2959.07L2169.36+2961.3L2162.03+2965.76C2142.67+2978.05+2124.78+2992.89+2108.61+3009.8C2121.67+2990.4+2137.68+2972.73+2155.8+2957.29C2174.07+2942.07+2194.25+2928.84+2215.97+2918.35C2237.67+2907.9+2260.73+2899.88+2284.57+2894.71C2290.54+2893.53+2296.51+2892.19+2302.57+2891.41C2305.58+2890.99+2308.61+2890.5+2311.63+2890.1L2320.75+2889.14L2325.31+2888.67L2329.88+2888.41L2339.06+2887.85C2342.11+2887.72+2345.16+2887.72+2348.24+2887.63C2351.29+2887.58+2354.37+2887.47+2357.42+2887.6C2363.54+2887.72+2369.69+2887.85+2375.8+2888.36C2378.85+2888.61+2381.92+2888.72+2384.98+2889.05L2394.13+2890.05C2397.18+2890.34+2400.21+2890.79+2403.27+2891.26L2412.38+2892.62L2421.42+2894.33C2424.45+2894.89+2427.48+2895.47+2430.47+2896.18C2454.48+2901.53+2478.06+2909.1+2500.71+2918.95L2509.2+2922.67C2512.01+2923.94+2514.77+2925.32+2517.56+2926.66C2523.17+2929.29+2528.65+2932.14+2534.2+2935.24C2545.27+2941.41+2556.41+2948.56+2566.97+2957.42C2577.55+2966.25+2587.29+2977.25+2595+2988.95C2602.77+3000.67+2608.67+3013.25+2613.24+3025.89C2622.31+3051.28+2626.1+3076.84+2628.24+3101.5C2628.81+3107.72+2629.04+3113.78+2629.42+3119.92C2629.62+3126.05+2629.93+3132.2+2629.93+3138.35C2630.17+3150.67+2629.82+3163.06+2629.15+3175.46C2628.46+3187.87+2627.19+3200.31+2625.52+3212.71C2624.56+3218.93+2623.71+3225.15+2622.44+3231.34L2620.59+3240.63L2618.45+3249.88C2617.79+3252.97+2616.98+3256.05+2616.14+3259.1C2615.29+3262.17+2614.51+3265.25+2613.6+3268.3C2611.7+3274.4+2609.94+3280.53+2607.72+3286.55C2603.57+3298.67+2598.58+3310.54+2592.99+3322.24C2587.42+3334.04+2580.83+3345.32+2573.81+3356.32L2568.24+3364.39L2565.45+3368.42L2562.49+3372.32C2560.49+3374.92+2558.55+3377.55+2556.52+3380.12L2550.19+3387.67C2548.12+3390.21+2545.87+3392.61+2543.64+3395.04C2541.39+3397.43+2539.23+3399.92+2536.87+3402.24C2532.17+3406.85+2527.54+3411.55+2522.48+3415.87C2517.6+3420.35+2512.32+3424.45+2507.11+3428.59C2504.5+3430.67+2501.72+3432.51+2499.02+3434.5C2496.3+3436.44+2493.58+3438.4+2490.71+3440.16L2482.18+3445.5C2479.24+3447.2+2476.27+3448.78+2473.31+3450.4L2468.85+3452.83L2464.29+3455.02C2461.21+3456.46+2458.16+3457.96+2455.06+3459.34C2448.74+3461.86+2442.5+3464.6+2435.95+3466.6C2432.7+3467.63+2429.47+3468.83+2426.19+3469.7C2422.89+3470.59+2419.62+3471.5+2416.32+3472.33C2389.9+3478.68+2363.08+3480.48+2337.12+3479.25C2311.14+3477.9+2285.99+3473.53+2261.69+3467.6C2237.49+3461.63+2213.65+3454.12+2190.33+3444.34C2167.05+3434.54+2144.32+3422.65+2122.96+3408.21C2101.53+3393.79+2081.74+3376.84+2064.39+3358.26C2046.97+3339.7+2031.55+3319.7+2017.87+3298.84C2004.17+3278.04+1992.29+3256.25+1981.98+3233.43C1976.81+3222.07+1972.2+3210.4+1968.06+3198.55C1963.91+3186.67+1960.21+3174.6+1957.36+3162.25C1951.46+3137.64+1948.21+3112.28+1947.98+3086.64C1947.92+3061+1951.17+3035.4+1957.92+3010.65C1961.22+2998.26+1965.52+2986.1+1970.66+2974.31C1975.79+2962.5+1981.82+2951.08+1988.91+2940.27C1995.97+2929.47+2003.81+2919.06+2012.52+2909.66C2021.21+2900.24+2030.55+2891.59+2040.35+2883.77C2059.93+2868.09+2081.03+2855.37+2102.53+2844.43C2124.01+2833.62+2146.11+2823.98+2169.16+2816.56C2192.2+2809.18+2216.1+2803.9+2240.28+2802.25C2264.4+2800.52+2288.26+2802.01+2311.61+2804.95C2335.01+2807.98+2357.97+2812.41+2380.85+2817.25" opacity="1" fill="#f74344"/>
</g>
<g id="Ebene 1" vectornator:layerName="Ebene 1">
<g opacity="1">
<path d="M2559.93+4291.72C2559.93+4430.53+2447.01+4543.47+2308.19+4543.49C2169.28+4543.51+2056.39+4430.63+2056.39+4291.71C2056.39+4152.89+2169.33+4039.95+2308.16+4039.95C2373.36+4039.95+2432.86+4064.87+2477.62+4105.68C2484.53+4111.98+2491.09+4118.66+2497.26+4125.69C2500.02+4128.82+2502.69+4132+2505.28+4135.27C2505.99+4136.16+2505.82+4137.48+2504.9+4138.17L2463.98+4169.12C2463.09+4169.79+2461.83+4169.63+2461.14+4168.76C2460.49+4167.94+2459.56+4166.79+2458.26+4165.25C2452.04+4157.88+2445.29+4150.97+2438.07+4144.59C2403.71+4114.22+2358.67+4095.66+2309.38+4095.36C2200.35+4094.69+2112+4182.31+2111.8+4291.34C2111.59+4399.79+2199.76+4488.08+2308.16+4488.08C2415.43+4488.08+2502.83+4405.51+2504.44+4298.68C2504.46+4297.16+2505.15+4295.72+2506.33+4294.77C2514.52+4288.15+2547.19+4261.7+2555.26+4255.17C2556.05+4254.52+2557.25+4254.99+2557.4+4256C2559.07+4267.67+2559.93+4279.6+2559.93+4291.72" opacity="1" fill="#6ebb40"/>
<path d="M2659.99+4152.26C2619.7+4169.72+2578.75+4195.31+2540.05+4223.79C2523.55+4235.93+2507.46+4248.6+2492+4261.4C2401.1+4336.62+2332.17+4416.04+2331.1+4417.29C2324.9+4424.47+2315.92+4428.54+2306.54+4428.54C2305.51+4428.54+2304.48+4428.49+2303.45+4428.39C2292.98+4427.4+2283.65+4421.38+2278.41+4412.25C2245.29+4354.53+2197.85+4303.57+2197.38+4303.06C2185.14+4289.99+2185.82+4269.47+2198.9+4257.23C2211.97+4245+2232.5+4245.68+2244.73+4258.76C2246.44+4260.59+2279.3+4295.88+2311.23+4342.73C2343.91+4307.93+2401.03+4250.44+2468.58+4196.76C2482.97+4185.32+2497.85+4174.06+2513.06+4163.22C2551.98+4135.48+2593.11+4110.56+2634.2+4092.76C2650.63+4085.63+2669.72+4093.18+2676.84+4109.62C2683.96+4126.04+2676.42+4145.14+2659.99+4152.26" opacity="1" fill="#6ebb40"/>
</g>
<g opacity="1">
<path d="M5180.86+2546.92C5180.86+2685.73+5067.95+2798.67+4929.13+2798.69C4790.22+2798.71+4677.32+2685.83+4677.33+2546.92C4677.33+2408.09+4790.27+2295.15+4929.1+2295.15C4994.3+2295.15+5053.79+2320.07+5098.56+2360.88C5105.47+2367.19+5112.03+2373.86+5118.2+2380.89C5120.95+2384.02+5123.63+2387.21+5126.22+2390.47C5126.93+2391.36+5126.76+2392.68+5125.84+2393.37L5084.92+2424.32C5084.03+2424.99+5082.77+2424.83+5082.08+2423.96C5081.43+2423.14+5080.5+2421.99+5079.2+2420.46C5072.98+2413.08+5066.23+2406.17+5059.01+2399.79C5024.64+2369.42+4979.61+2350.86+4930.32+2350.56C4821.29+2349.9+4732.94+2437.51+4732.73+2546.54C4732.53+2654.99+4820.69+2743.28+4929.1+2743.28C5036.36+2743.28+5123.76+2660.71+5125.38+2553.88C5125.4+2552.36+5126.09+2550.93+5127.27+2549.97C5135.46+2543.35+5168.13+2516.9+5176.2+2510.37C5176.99+2509.72+5178.19+2510.19+5178.34+2511.21C5180+2522.88+5180.86+2534.8+5180.86+2546.92" opacity="1" fill="#6ebb40"/>
<path d="M5280.93+2407.46C5240.64+2424.93+5199.69+2450.51+5160.99+2478.99C5144.49+2491.13+5128.39+2503.8+5112.94+2516.6C5022.04+2591.82+4953.11+2671.24+4952.04+2672.49C4945.84+2679.67+4936.86+2683.74+4927.47+2683.74C4926.45+2683.74+4925.42+2683.69+4924.39+2683.6C4913.92+2682.6+4904.58+2676.58+4899.35+2667.46C4866.23+2609.73+4818.79+2558.78+4818.32+2558.27C4806.08+2545.19+4806.76+2524.67+4819.83+2512.44C4832.91+2500.21+4853.43+2500.88+4865.66+2513.96C4867.38+2515.79+4900.24+2551.09+4932.16+2597.93C4964.84+2563.13+5021.96+2505.64+5089.52+2451.97C5103.91+2440.52+5118.78+2429.26+5133.99+2418.42C5172.91+2390.69+5214.05+2365.77+5255.14+2347.96C5271.57+2340.83+5290.66+2348.38+5297.78+2364.82C5304.9+2381.24+5297.36+2400.34+5280.93+2407.46" opacity="1" fill="#6ebb40"/>
</g>
<g opacity="1">
<path d="M4464.14+4327.87C4464.14+4466.68+4351.22+4579.62+4212.41+4579.63C4073.49+4579.66+3960.6+4466.77+3960.6+4327.86C3960.61+4189.04+4073.55+4076.1+4212.37+4076.1C4277.58+4076.1+4337.07+4101.02+4381.84+4141.83C4388.75+4148.13+4395.31+4154.81+4401.48+4161.84C4404.23+4164.96+4406.9+4168.15+4409.49+4171.41C4410.21+4172.31+4410.04+4173.63+4409.12+4174.32L4368.2+4205.27C4367.31+4205.94+4366.04+4205.77+4365.35+4204.9C4364.71+4204.09+4363.77+4202.94+4362.48+4201.4C4356.26+4194.03+4349.51+4187.12+4342.28+4180.74C4307.92+4150.36+4262.88+4131.81+4213.6+4131.51C4104.57+4130.84+4016.22+4218.46+4016.01+4327.49C4015.81+4435.94+4103.97+4524.23+4212.37+4524.23C4319.64+4524.23+4407.04+4441.66+4408.66+4334.83C4408.68+4333.3+4409.36+4331.87+4410.55+4330.92C4418.74+4324.3+4451.41+4297.84+4459.47+4291.31C4460.27+4290.67+4461.47+4291.14+4461.61+4292.15C4463.28+4303.82+4464.14+4315.74+4464.14+4327.87" opacity="1" fill="#6ebb40"/>
<path d="M4564.21+4188.41C4523.91+4205.87+4482.97+4231.46+4444.27+4259.94C4427.77+4272.08+4411.67+4284.75+4396.21+4297.54C4305.31+4372.77+4236.38+4452.19+4235.31+4453.44C4229.12+4460.61+4220.13+4464.69+4210.75+4464.69C4209.73+4464.69+4208.7+4464.64+4207.67+4464.54C4197.2+4463.54+4187.86+4457.52+4182.63+4448.4C4149.51+4390.68+4102.07+4339.72+4101.6+4339.21C4089.36+4326.14+4090.03+4305.62+4103.11+4293.38C4116.19+4281.15+4136.71+4281.82+4148.94+4294.9C4150.66+4296.74+4183.52+4332.03+4215.44+4378.87C4248.12+4344.07+4305.24+4286.59+4372.79+4232.91C4387.19+4221.47+4402.06+4210.2+4417.27+4199.37C4456.19+4171.63+4497.33+4146.71+4538.41+4128.91C4554.84+4121.78+4573.93+4129.33+4581.06+4145.76C4588.18+4162.19+4580.64+4181.28+4564.21+4188.41" opacity="1" fill="#6ebb40"/>
</g>
</g>
</svg>
